<?xml version="1.0" encoding="UTF-8"?>
<svg id="Camada_2" data-name="Camada 2" xmlns="http://www.w3.org/2000/svg" viewBox="0 0 135.39 25.21">
  <defs>
    <style>
      .cls-1 {
        stroke: #000;
        stroke-miterlimit: 10;
      }
    </style>
  </defs>
  <g id="Camada_1-2" data-name="Camada 1">
    <g>
      <path class="cls-1" d="m3.16,21.85h12.89v2.4H.5V.92h2.66v20.93Z"/>
      <path class="cls-1" d="m19.54,16.85c.42,3.33,2.95,5.58,6.41,5.58,2.34,0,4.39-.99,5.55-2.63l2.02,1.35c-1.51,2.15-4.33,3.56-7.57,3.56-5.19,0-8.98-3.88-8.98-8.85s3.62-8.88,8.59-8.88,8.56,3.43,8.56,8.34c0,.48-.03.99-.06,1.54h-14.52Zm12.09-2.08c-.06-1.63-.64-2.98-1.76-3.98-1.12-1.03-2.53-1.54-4.3-1.54-3.21,0-5.55,2.18-6.03,5.51h12.09Z"/>
      <path class="cls-1" d="m53.11,7.42v16.83h-2.6v-3.08c-1.15,2.28-3.53,3.53-6.38,3.53-4.78,0-8.3-3.88-8.3-8.85s3.53-8.88,8.3-8.88c2.85,0,5.23,1.25,6.38,3.53v-3.08h2.6Zm-8.62,1.86c-3.62,0-6.12,2.89-6.12,6.57s2.5,6.54,6.12,6.54c3.4,0,6.06-2.4,6.06-6.54s-2.66-6.57-6.06-6.57Z"/>
      <path class="cls-1" d="m73.28.5v23.76h-2.6v-3.08c-1.15,2.28-3.53,3.53-6.38,3.53-4.78,0-8.3-3.88-8.3-8.85s3.53-8.88,8.3-8.88c2.85,0,5.23,1.25,6.38,3.53V.5h2.6Zm-8.62,8.78c-3.62,0-6.12,2.89-6.12,6.57s2.5,6.54,6.12,6.54c3.4,0,6.06-2.4,6.06-6.54s-2.66-6.57-6.06-6.57Z"/>
      <path class="cls-1" d="m77.93,19.74c1.06,1.64,3.33,2.76,5.9,2.76,1.38,0,2.53-.22,3.49-.71.99-.48,1.47-1.12,1.47-1.89,0-1.41-1.03-2.05-3.88-2.69l-2.98-.67c-3.59-.8-5.23-2.21-5.23-4.55,0-3.01,2.95-5,6.99-5,1.57,0,3.01.32,4.33.99,1.35.67,2.34,1.48,2.95,2.44l-2.02,1.25c-.99-1.51-3.05-2.44-5.32-2.44-2.47,0-4.46,1.06-4.46,2.6,0,1.38.99,1.96,3.85,2.63l2.98.67c3.62.8,5.29,2.18,5.29,4.62,0,2.95-3.24,4.97-7.53,4.97-3.46,0-6.51-1.64-7.89-3.72l2.05-1.25Z"/>
      <path class="cls-1" d="m102.54,22.38v2.33s-.69,0-.78,0c-3.69-.09-5.53-2.42-5.53-6.95v-8.01h-2.98v-2.31h2.98V2.74h2.6v4.68h3.67v2.31h-3.67v7.92c0,3.17,1.12,4.74,3.33,4.74h.37Z"/>
      <path class="cls-1" d="m107.54,16.85c.42,3.33,2.95,5.58,6.41,5.58,2.34,0,4.39-.99,5.55-2.63l2.02,1.35c-1.51,2.15-4.33,3.56-7.57,3.56-5.19,0-8.98-3.88-8.98-8.85s3.62-8.88,8.59-8.88,8.56,3.43,8.56,8.34c0,.48-.03.99-.06,1.54h-14.52Zm12.09-2.08c-.06-1.63-.64-2.98-1.76-3.98-1.12-1.03-2.53-1.54-4.3-1.54-3.21,0-5.55,2.18-6.03,5.51h12.09Z"/>
      <path class="cls-1" d="m134.89,9.7c-.51-.13-1.12-.19-1.8-.19-3.21,0-5.45,2.76-5.45,5.96v8.78h-2.6V7.42h2.6v3.46c.9-2.28,2.95-3.78,5.55-3.78.74,0,1.28.1,1.7.26v2.34Z"/>
    </g>
  </g>
</svg>