<?xml version="1.0" encoding="UTF-8"?>
<svg id="Camada_2" data-name="Camada 2" xmlns="http://www.w3.org/2000/svg" viewBox="0 0 65.57 57.69">
  <defs>
    <style>
      .cls-1 {
        fill: #006cec;
      }

      .cls-2 {
        fill: #05dcff;
      }
    </style>
  </defs>
  <g id="Camada_1-2" data-name="Camada 1">
    <g>
      <g>
        <rect class="cls-2" x="38.47" y="-1.1" width="7.25" height="23.66" rx="3.63" ry="3.63" transform="translate(11.01 -19.61) rotate(30)"/>
        <rect class="cls-2" x="50.11" y="15.76" width="7.25" height="23.66" rx="3.63" ry="3.63" transform="translate(81.32 -26.15) rotate(90)"/>
        <rect class="cls-2" x="18.86" y="-1.1" width="7.25" height="23.66" rx="3.63" ry="3.63" transform="translate(-2.24 13.77) rotate(-32.53)"/>
      </g>
      <path class="cls-1" d="m49.48,57.12c-1.74,1-3.95.41-4.96-1.33l-11.81-20.45-11.86,20.54c-1,1.73-3.22,2.32-4.95,1.32-1.17-.67-1.82-1.89-1.82-3.14,0-.62.16-1.24.49-1.81l12.15-21.04H3.63c-2.01,0-3.63-1.62-3.63-3.62,0-1,.4-1.91,1.06-2.57.66-.65,1.56-1.06,2.57-1.06h28.74c1.24,0,2.34.62,2.99,1.57.02.01.02.02.02.03.13.14.23.29.33.46l15.09,26.15c1.01,1.73.41,3.95-1.32,4.95Z"/>
    </g>
  </g>
</svg>