<?xml version="1.0" encoding="UTF-8"?>
<svg id="Camada_2" data-name="Camada 2" xmlns="http://www.w3.org/2000/svg" viewBox="0 0 725.76 269.61">
  <defs>
    <style>
      .cls-1 {
        fill: #1c3c50;
      }

      .cls-2 {
        fill: #05dcff;
      }

      .cls-3 {
        fill: none;
        stroke: #0084ff;
        stroke-miterlimit: 10;
        stroke-width: 2px;
      }

      .cls-4 {
        fill: #0084ff;
      }
    </style>
  </defs>
  <g id="Camada_1-2" data-name="Camada 1">
    <g>
      <g>
        <path class="cls-1" d="m143.78,97.48v-35.7h3.35l13.42,19.45h-1.87l13.37-19.45h3.35v35.7h-3.83v-30.52l1.25.48-13.13,19.02h-.19l-13.08-19.02,1.2-.48v30.52h-3.83Z"/>
        <path class="cls-1" d="m195,98.05c-2.4,0-4.56-.58-6.49-1.75-1.93-1.17-3.46-2.77-4.58-4.82-1.12-2.04-1.68-4.36-1.68-6.95s.54-4.88,1.63-6.88c1.09-2,2.56-3.57,4.43-4.72,1.87-1.15,3.97-1.72,6.3-1.72,1.85,0,3.51.34,4.96,1.03,1.45.69,2.69,1.61,3.71,2.78,1.02,1.17,1.8,2.48,2.35,3.93.54,1.45.81,2.95.81,4.48,0,.32-.02.68-.05,1.08-.03.4-.08.81-.14,1.22h-21.71v-3.35h19.65l-1.73,1.44c.29-1.76.09-3.33-.6-4.72-.69-1.39-1.67-2.49-2.95-3.31-1.28-.81-2.72-1.22-4.31-1.22s-3.08.42-4.43,1.25c-1.36.83-2.42,1.99-3.19,3.47-.77,1.49-1.07,3.25-.91,5.29-.16,2.04.17,3.83.98,5.34.81,1.52,1.93,2.69,3.35,3.52,1.42.83,2.95,1.25,4.58,1.25,1.88,0,3.47-.45,4.74-1.34,1.28-.89,2.32-2.01,3.11-3.35l3.07,1.63c-.51,1.15-1.29,2.21-2.35,3.19-1.05.98-2.31,1.76-3.76,2.35-1.45.59-3.06.89-4.82.89Z"/>
        <path class="cls-1" d="m212.78,97.48v-25.68h3.59v4.98l-.81-.19c.64-1.66,1.68-2.97,3.14-3.93,1.45-.96,3.14-1.44,5.06-1.44s3.46.42,4.91,1.25c1.45.83,2.6,1.97,3.45,3.43.85,1.45,1.27,3.09,1.27,4.91v16.68h-3.59v-15.29c0-1.56-.28-2.89-.84-3.98-.56-1.09-1.34-1.92-2.35-2.52-1.01-.59-2.16-.89-3.47-.89s-2.48.3-3.5.89c-1.02.59-1.82,1.44-2.4,2.54-.58,1.1-.86,2.42-.86,3.95v15.29h-3.59Z"/>
        <path class="cls-1" d="m252.26,98.05c-2.43,0-4.63-.58-6.61-1.75-1.98-1.17-3.55-2.76-4.72-4.79-1.17-2.03-1.75-4.34-1.75-6.92s.58-4.84,1.73-6.85c1.15-2.01,2.71-3.6,4.67-4.77,1.96-1.17,4.19-1.75,6.68-1.75s4.72.57,6.68,1.72c1.96,1.15,3.51,2.73,4.65,4.74,1.13,2.01,1.7,4.31,1.7,6.9s-.59,4.94-1.77,6.97c-1.18,2.03-2.75,3.62-4.72,4.77-1.96,1.15-4.15,1.73-6.54,1.73Zm0-3.59c1.72,0,3.28-.43,4.67-1.29,1.39-.86,2.49-2.04,3.31-3.55.81-1.5,1.22-3.18,1.22-5.03s-.41-3.51-1.22-4.98c-.81-1.47-1.92-2.64-3.31-3.5-1.39-.86-2.95-1.29-4.67-1.29s-3.28.43-4.67,1.29c-1.39.86-2.5,2.03-3.33,3.5-.83,1.47-1.25,3.13-1.25,4.98s.42,3.53,1.25,5.03c.83,1.5,1.94,2.68,3.33,3.55,1.39.86,2.95,1.29,4.67,1.29Z"/>
        <path class="cls-1" d="m280.53,98.05c-2.46,0-4.62-.62-6.47-1.87-1.85-1.25-3.19-2.94-4.02-5.08l3.02-1.44c.73,1.57,1.76,2.81,3.09,3.74,1.33.93,2.79,1.39,4.38,1.39s2.83-.38,3.88-1.13c1.05-.75,1.58-1.73,1.58-2.95,0-.89-.26-1.61-.77-2.13-.51-.53-1.1-.93-1.77-1.22-.67-.29-1.26-.49-1.77-.62l-3.69-1.05c-2.36-.67-4.07-1.61-5.13-2.83-1.05-1.21-1.58-2.62-1.58-4.22,0-1.5.38-2.81,1.15-3.93.77-1.12,1.8-1.98,3.11-2.59,1.31-.61,2.76-.91,4.36-.91,2.17,0,4.15.57,5.92,1.7,1.77,1.13,3.03,2.71,3.76,4.72l-3.07,1.44c-.64-1.44-1.56-2.56-2.76-3.38-1.2-.81-2.53-1.22-4-1.22s-2.59.37-3.45,1.1c-.86.74-1.29,1.66-1.29,2.78,0,.86.22,1.55.67,2.06.45.51.97.89,1.56,1.15.59.26,1.11.45,1.56.58l4.26,1.25c2.08.61,3.7,1.55,4.86,2.83,1.17,1.28,1.75,2.78,1.75,4.5,0,1.41-.39,2.67-1.17,3.79-.78,1.12-1.86,1.99-3.23,2.61-1.37.62-2.96.93-4.74.93Z"/>
        <path class="cls-1" d="m320.97,98.05c-2.52,0-4.84-.46-6.95-1.37-2.11-.91-3.94-2.19-5.49-3.83-1.55-1.65-2.76-3.59-3.62-5.82-.86-2.24-1.29-4.7-1.29-7.38s.43-5.14,1.29-7.38c.86-2.24,2.07-4.18,3.62-5.85,1.55-1.66,3.38-2.95,5.49-3.86s4.42-1.37,6.95-1.37,4.61.43,6.54,1.29c1.93.86,3.56,1.97,4.89,3.33,1.33,1.36,2.28,2.79,2.85,4.29l-3.59,1.58c-.89-2.08-2.26-3.75-4.1-5.01-1.84-1.26-4.03-1.89-6.59-1.89s-4.95.62-7,1.87c-2.04,1.25-3.64,2.98-4.79,5.2-1.15,2.22-1.73,4.82-1.73,7.79s.57,5.53,1.73,7.76c1.15,2.24,2.75,3.97,4.79,5.2,2.04,1.23,4.38,1.84,7,1.84s4.75-.62,6.59-1.87c1.84-1.25,3.2-2.91,4.1-4.98l3.59,1.58c-.58,1.47-1.53,2.88-2.85,4.24-1.33,1.36-2.96,2.47-4.89,3.33-1.93.86-4.11,1.29-6.54,1.29Z"/>
        <path class="cls-1" d="m353.13,98.05c-2.43,0-4.63-.58-6.61-1.75-1.98-1.17-3.55-2.76-4.72-4.79-1.17-2.03-1.75-4.34-1.75-6.92s.58-4.84,1.73-6.85c1.15-2.01,2.71-3.6,4.67-4.77,1.96-1.17,4.19-1.75,6.68-1.75s4.72.57,6.68,1.72c1.96,1.15,3.51,2.73,4.65,4.74,1.13,2.01,1.7,4.31,1.7,6.9s-.59,4.94-1.77,6.97c-1.18,2.03-2.75,3.62-4.72,4.77-1.96,1.15-4.15,1.73-6.54,1.73Zm0-3.59c1.72,0,3.28-.43,4.67-1.29,1.39-.86,2.49-2.04,3.31-3.55.81-1.5,1.22-3.18,1.22-5.03s-.41-3.51-1.22-4.98c-.81-1.47-1.92-2.64-3.31-3.5-1.39-.86-2.95-1.29-4.67-1.29s-3.28.43-4.67,1.29c-1.39.86-2.5,2.03-3.33,3.5-.83,1.47-1.25,3.13-1.25,4.98s.42,3.53,1.25,5.03c.83,1.5,1.94,2.68,3.33,3.55,1.39.86,2.95,1.29,4.67,1.29Z"/>
        <path class="cls-1" d="m372.49,97.48v-25.68h3.59v4.98l-.81-.19c.64-1.66,1.68-2.97,3.14-3.93,1.45-.96,3.14-1.44,5.06-1.44s3.46.42,4.91,1.25c1.45.83,2.6,1.97,3.45,3.43.85,1.45,1.27,3.09,1.27,4.91v16.68h-3.59v-15.29c0-1.56-.28-2.89-.84-3.98-.56-1.09-1.34-1.92-2.35-2.52-1.01-.59-2.16-.89-3.47-.89s-2.48.3-3.5.89c-1.02.59-1.82,1.44-2.4,2.54-.58,1.1-.86,2.42-.86,3.95v15.29h-3.59Z"/>
        <path class="cls-1" d="m406.32,97.48l-10.02-25.68h4.03l8.43,22.52h-1.29l8.48-22.52h4.07l-10.11,25.68h-3.59Z"/>
        <path class="cls-1" d="m435.45,98.05c-2.4,0-4.56-.58-6.49-1.75-1.93-1.17-3.46-2.77-4.58-4.82-1.12-2.04-1.68-4.36-1.68-6.95s.54-4.88,1.63-6.88c1.09-2,2.56-3.57,4.43-4.72,1.87-1.15,3.97-1.72,6.3-1.72,1.85,0,3.51.34,4.96,1.03,1.45.69,2.69,1.61,3.71,2.78,1.02,1.17,1.8,2.48,2.35,3.93.54,1.45.81,2.95.81,4.48,0,.32-.02.68-.05,1.08-.03.4-.08.81-.14,1.22h-21.71v-3.35h19.65l-1.73,1.44c.29-1.76.09-3.33-.6-4.72-.69-1.39-1.67-2.49-2.95-3.31-1.28-.81-2.72-1.22-4.31-1.22s-3.08.42-4.43,1.25c-1.36.83-2.42,1.99-3.19,3.47-.77,1.49-1.07,3.25-.91,5.29-.16,2.04.17,3.83.98,5.34.81,1.52,1.93,2.69,3.35,3.52,1.42.83,2.95,1.25,4.58,1.25,1.88,0,3.47-.45,4.74-1.34,1.28-.89,2.32-2.01,3.11-3.35l3.07,1.63c-.51,1.15-1.29,2.21-2.35,3.19-1.05.98-2.31,1.76-3.76,2.35-1.45.59-3.06.89-4.82.89Z"/>
        <path class="cls-1" d="m453.23,97.48v-25.68h3.59v4.22l-.48-.62c.61-1.21,1.53-2.17,2.76-2.88,1.23-.7,2.72-1.05,4.48-1.05h1.63v3.59h-2.25c-1.85,0-3.34.58-4.46,1.73-1.12,1.15-1.68,2.78-1.68,4.89v15.81h-3.59Z"/>
        <path class="cls-1" d="m478.34,98.05c-2.46,0-4.62-.62-6.47-1.87-1.85-1.25-3.19-2.94-4.02-5.08l3.02-1.44c.73,1.57,1.76,2.81,3.09,3.74,1.33.93,2.79,1.39,4.38,1.39s2.83-.38,3.88-1.13c1.05-.75,1.58-1.73,1.58-2.95,0-.89-.26-1.61-.77-2.13-.51-.53-1.1-.93-1.77-1.22-.67-.29-1.26-.49-1.77-.62l-3.69-1.05c-2.36-.67-4.07-1.61-5.13-2.83-1.05-1.21-1.58-2.62-1.58-4.22,0-1.5.38-2.81,1.15-3.93.77-1.12,1.8-1.98,3.11-2.59,1.31-.61,2.76-.91,4.36-.91,2.17,0,4.15.57,5.92,1.7,1.77,1.13,3.03,2.71,3.76,4.72l-3.07,1.44c-.64-1.44-1.56-2.56-2.76-3.38-1.2-.81-2.53-1.22-4-1.22s-2.59.37-3.45,1.1c-.86.74-1.29,1.66-1.29,2.78,0,.86.22,1.55.67,2.06.45.51.97.89,1.56,1.15.59.26,1.11.45,1.56.58l4.26,1.25c2.08.61,3.7,1.55,4.86,2.83,1.17,1.28,1.75,2.78,1.75,4.5,0,1.41-.39,2.67-1.17,3.79-.78,1.12-1.86,1.99-3.23,2.61-1.37.62-2.96.93-4.74.93Z"/>
        <path class="cls-1" d="m493.81,67.05v-5.27h3.59v5.27h-3.59Zm0,30.43v-25.68h3.59v25.68h-3.59Z"/>
        <path class="cls-1" d="m504.79,97.48v-25.68h3.59v4.98l-.81-.19c.64-1.66,1.68-2.97,3.14-3.93,1.45-.96,3.14-1.44,5.06-1.44s3.46.42,4.91,1.25c1.45.83,2.6,1.97,3.45,3.43.85,1.45,1.27,3.09,1.27,4.91v16.68h-3.59v-15.29c0-1.56-.28-2.89-.84-3.98-.56-1.09-1.34-1.92-2.35-2.52-1.01-.59-2.16-.89-3.47-.89s-2.48.3-3.5.89c-1.02.59-1.82,1.44-2.4,2.54-.58,1.1-.86,2.42-.86,3.95v15.29h-3.59Z"/>
        <path class="cls-1" d="m532.24,97.48v-36.27h3.59v15.57l-.81-.19c.64-1.66,1.68-2.97,3.14-3.93,1.45-.96,3.14-1.44,5.06-1.44s3.46.42,4.91,1.25c1.45.83,2.6,1.97,3.45,3.43.85,1.45,1.27,3.09,1.27,4.91v16.68h-3.59v-15.29c0-1.56-.29-2.89-.86-3.98-.58-1.09-1.37-1.92-2.37-2.52-1.01-.59-2.15-.89-3.43-.89s-2.43.3-3.45.89c-1.02.59-1.83,1.44-2.42,2.54-.59,1.1-.89,2.42-.89,3.95v15.29h-3.59Z"/>
        <path class="cls-1" d="m567.13,98.05c-1.63,0-3.08-.31-4.36-.93-1.28-.62-2.29-1.48-3.02-2.56-.74-1.09-1.1-2.33-1.1-3.74s.29-2.56.86-3.67,1.47-2.04,2.68-2.8c1.21-.77,2.76-1.31,4.65-1.63l10.06-1.68v3.26l-9.2,1.53c-1.85.32-3.19.91-4,1.77-.81.86-1.22,1.89-1.22,3.07s.46,2.12,1.37,2.92c.91.8,2.08,1.2,3.52,1.2,1.76,0,3.29-.38,4.6-1.13,1.31-.75,2.33-1.76,3.07-3.04.73-1.28,1.1-2.7,1.1-4.27v-6.52c0-1.53-.56-2.78-1.68-3.74-1.12-.96-2.57-1.44-4.36-1.44-1.57,0-2.94.39-4.12,1.17-1.18.78-2.06,1.8-2.64,3.04l-3.26-1.77c.48-1.09,1.24-2.08,2.28-2.97,1.04-.89,2.23-1.61,3.57-2.13,1.34-.53,2.73-.79,4.17-.79,1.88,0,3.55.37,5.01,1.1,1.45.73,2.59,1.75,3.4,3.04.82,1.29,1.22,2.79,1.22,4.48v17.63h-3.59v-5.13l.53.53c-.45.96-1.14,1.83-2.08,2.61-.94.78-2.04,1.41-3.31,1.87-1.26.46-2.64.69-4.14.69Z"/>
        <path class="cls-1" d="m587.25,103.71v-1.68c.96-.26,1.66-.75,2.11-1.49.45-.74.67-1.76.67-3.07h-1.82v-5.27h3.83v4.02c0,2.08-.4,3.75-1.2,5.01-.8,1.26-2,2.08-3.59,2.47Z"/>
      </g>
      <g>
        <path class="cls-1" d="m44.38,265.72c-.94,0-1.8-.17-2.59-.51-.78-.34-1.47-.81-2.04-1.43-.58-.61-1.03-1.33-1.35-2.17-.32-.83-.48-1.75-.48-2.75s.16-1.91.48-2.75c.32-.83.77-1.56,1.35-2.18.58-.62,1.26-1.1,2.04-1.44.79-.34,1.65-.51,2.59-.51s1.72.16,2.44.48c.72.32,1.33.73,1.82,1.24.49.51.85,1.04,1.06,1.6l-1.34.59c-.33-.77-.84-1.39-1.53-1.86-.68-.47-1.5-.7-2.45-.7s-1.84.23-2.6.7c-.76.46-1.36,1.11-1.78,1.94-.43.83-.64,1.79-.64,2.9s.21,2.06.64,2.89c.43.83,1.02,1.48,1.78,1.94s1.63.69,2.6.69,1.77-.23,2.45-.7c.68-.46,1.19-1.08,1.53-1.86l1.34.59c-.21.55-.57,1.07-1.06,1.58-.49.51-1.1.92-1.82,1.24-.72.32-1.53.48-2.44.48Z"/>
        <path class="cls-1" d="m56.35,265.72c-.9,0-1.72-.22-2.46-.65s-1.32-1.03-1.76-1.78c-.43-.76-.65-1.61-.65-2.58s.21-1.8.64-2.55,1.01-1.34,1.74-1.77,1.56-.65,2.49-.65,1.76.21,2.49.64c.73.43,1.31,1.02,1.73,1.77.42.75.63,1.61.63,2.57s-.22,1.84-.66,2.6c-.44.76-1.03,1.35-1.76,1.77s-1.54.64-2.44.64Zm0-1.34c.64,0,1.22-.16,1.74-.48.52-.32.93-.76,1.23-1.32.3-.56.46-1.18.46-1.87s-.15-1.31-.46-1.85c-.3-.55-.71-.98-1.23-1.3-.52-.32-1.1-.48-1.74-.48s-1.22.16-1.74.48c-.52.32-.93.76-1.24,1.3-.31.55-.46,1.17-.46,1.85s.15,1.31.46,1.87c.31.56.72,1,1.24,1.32.52.32,1.1.48,1.74.48Z"/>
        <path class="cls-1" d="m63.56,265.51v-9.56h1.34v1.85l-.3-.07c.24-.62.63-1.11,1.17-1.46.54-.36,1.17-.54,1.88-.54s1.29.15,1.83.46c.54.31.97.73,1.29,1.28.31.54.47,1.15.47,1.83v6.21h-1.34v-5.69c0-.58-.1-1.08-.31-1.48-.21-.4-.5-.72-.87-.94-.38-.22-.81-.33-1.29-.33s-.92.11-1.3.33c-.38.22-.68.54-.89.95-.21.41-.32.9-.32,1.47v5.69h-1.34Z"/>
        <path class="cls-1" d="m73.78,265.51v-13.5h1.34v5.8l-.3-.07c.24-.62.63-1.11,1.17-1.46.54-.36,1.17-.54,1.88-.54s1.29.15,1.83.46c.54.31.97.73,1.29,1.28.31.54.47,1.15.47,1.83v6.21h-1.34v-5.69c0-.58-.11-1.08-.32-1.48-.21-.4-.51-.72-.88-.94-.38-.22-.8-.33-1.28-.33s-.9.11-1.29.33c-.38.22-.68.54-.9.95-.22.41-.33.9-.33,1.47v5.69h-1.34Z"/>
        <path class="cls-1" d="m88.35,265.72c-.89,0-1.7-.22-2.42-.65-.72-.43-1.29-1.03-1.7-1.79-.42-.76-.62-1.62-.62-2.59s.2-1.82.61-2.56c.4-.74.95-1.33,1.65-1.76.7-.43,1.48-.64,2.35-.64.69,0,1.3.13,1.85.38s1,.6,1.38,1.03.67.92.87,1.46.3,1.1.3,1.67c0,.12,0,.25-.02.4-.01.15-.03.3-.05.45h-8.08v-1.25h7.31l-.64.54c.11-.65.03-1.24-.22-1.76-.26-.52-.62-.93-1.1-1.23s-1.01-.45-1.61-.45-1.14.15-1.65.46-.9.74-1.19,1.29c-.29.55-.4,1.21-.34,1.97-.06.76.06,1.42.37,1.99.3.56.72,1,1.25,1.31.53.31,1.1.46,1.7.46.7,0,1.29-.17,1.77-.5s.86-.75,1.16-1.25l1.14.61c-.19.43-.48.82-.87,1.19-.39.36-.86.65-1.4.87-.54.22-1.14.33-1.79.33Z"/>
        <path class="cls-1" d="m99.34,265.72c-.94,0-1.77-.22-2.48-.66-.71-.44-1.27-1.04-1.68-1.79-.41-.75-.61-1.61-.61-2.56s.2-1.8.61-2.55c.4-.75.96-1.34,1.68-1.77.71-.43,1.54-.65,2.48-.65.59,0,1.15.11,1.68.32.52.21.99.5,1.39.87s.71.78.91,1.26l-1.21.62c-.24-.51-.6-.93-1.09-1.25-.49-.32-1.05-.48-1.68-.48s-1.2.16-1.7.47c-.51.31-.9.75-1.2,1.3-.29.55-.44,1.18-.44,1.88s.15,1.31.44,1.86c.29.55.69.99,1.2,1.31s1.07.48,1.7.48,1.19-.16,1.67-.48.85-.75,1.1-1.28l1.21.66c-.2.46-.5.88-.91,1.25s-.87.66-1.39.87c-.52.21-1.08.32-1.68.32Zm.21,3.89c-.34,0-.69-.06-1.03-.18-.34-.12-.62-.28-.83-.48l.38-.95c.18.17.38.3.62.39.23.09.46.14.69.14.26,0,.47-.07.63-.21.16-.14.24-.31.24-.53,0-.27-.14-.49-.41-.64-.27-.15-.72-.27-1.34-.34l.43-1.5h.96l-.23.86c.62.13,1.08.34,1.4.63.31.29.47.65.47,1.08,0,.5-.19.91-.56,1.23-.37.32-.85.48-1.42.48Z"/>
        <path class="cls-1" d="m108.26,265.72c-.61,0-1.15-.12-1.62-.35s-.85-.55-1.12-.95c-.27-.4-.41-.87-.41-1.39s.11-.95.32-1.36.55-.76,1-1.04c.45-.29,1.03-.49,1.73-.61l3.75-.62v1.21l-3.42.57c-.69.12-1.19.34-1.49.66-.3.32-.46.7-.46,1.14s.17.79.51,1.09.78.45,1.31.45c.65,0,1.22-.14,1.71-.42.49-.28.87-.66,1.14-1.13.27-.48.41-1,.41-1.59v-2.43c0-.57-.21-1.03-.62-1.39-.42-.36-.96-.54-1.62-.54-.58,0-1.09.15-1.53.44-.44.29-.77.67-.98,1.13l-1.21-.66c.18-.4.46-.77.85-1.11s.83-.6,1.33-.79c.5-.2,1.02-.29,1.55-.29.7,0,1.32.14,1.86.41s.96.65,1.27,1.13c.3.48.46,1.04.46,1.67v6.56h-1.34v-1.91l.2.2c-.17.36-.43.68-.78.97s-.76.52-1.23.7c-.47.17-.98.26-1.54.26Z"/>
        <path class="cls-1" d="m121.5,265.72c-.61,0-1.15-.12-1.62-.35s-.85-.55-1.12-.95c-.27-.4-.41-.87-.41-1.39s.11-.95.32-1.36.55-.76,1-1.04c.45-.29,1.03-.49,1.73-.61l3.75-.62v1.21l-3.42.57c-.69.12-1.19.34-1.49.66-.3.32-.46.7-.46,1.14s.17.79.51,1.09.78.45,1.31.45c.65,0,1.22-.14,1.71-.42.49-.28.87-.66,1.14-1.13.27-.48.41-1,.41-1.59v-2.43c0-.57-.21-1.03-.62-1.39-.42-.36-.96-.54-1.62-.54-.58,0-1.09.15-1.53.44-.44.29-.77.67-.98,1.13l-1.21-.66c.18-.4.46-.77.85-1.11s.83-.6,1.33-.79c.5-.2,1.02-.29,1.55-.29.7,0,1.32.14,1.86.41s.96.65,1.27,1.13c.3.48.46,1.04.46,1.67v6.56h-1.34v-1.91l.2.2c-.17.36-.43.68-.78.97s-.76.52-1.23.7c-.47.17-.98.26-1.54.26Z"/>
        <path class="cls-1" d="m132.25,265.72c-.92,0-1.72-.23-2.41-.7-.69-.46-1.19-1.09-1.5-1.89l1.12-.54c.27.58.66,1.05,1.15,1.39.49.34,1.04.52,1.63.52s1.05-.14,1.45-.42c.39-.28.59-.65.59-1.1,0-.33-.09-.6-.29-.79s-.41-.35-.66-.46c-.25-.11-.47-.18-.66-.23l-1.37-.39c-.88-.25-1.52-.6-1.91-1.05-.39-.45-.59-.98-.59-1.57,0-.56.14-1.05.43-1.46.29-.42.67-.74,1.16-.96.49-.23,1.03-.34,1.62-.34.81,0,1.54.21,2.2.63.66.42,1.13,1.01,1.4,1.76l-1.14.54c-.24-.54-.58-.95-1.03-1.26s-.94-.45-1.49-.45-.96.14-1.29.41c-.32.27-.48.62-.48,1.03,0,.32.08.58.25.77.17.19.36.33.58.43.22.1.41.17.58.21l1.59.46c.77.23,1.38.58,1.81,1.05.43.48.65,1.03.65,1.68,0,.52-.15.99-.44,1.41-.29.42-.69.74-1.2.97-.51.23-1.1.35-1.77.35Z"/>
        <path class="cls-1" d="m145.4,265.72c-.89,0-1.7-.22-2.42-.65s-1.29-1.03-1.7-1.79c-.42-.76-.62-1.62-.62-2.59s.2-1.82.61-2.56c.4-.74.95-1.33,1.65-1.76.7-.43,1.48-.64,2.35-.64.69,0,1.31.13,1.85.38s1,.6,1.38,1.03c.38.43.67.92.87,1.46s.3,1.1.3,1.67c0,.12,0,.25-.02.4-.01.15-.03.3-.05.45h-8.08v-1.25h7.31l-.64.54c.11-.65.03-1.24-.22-1.76-.26-.52-.62-.93-1.1-1.23s-1.01-.45-1.61-.45-1.14.15-1.65.46c-.51.31-.9.74-1.19,1.29-.29.55-.4,1.21-.34,1.97-.06.76.06,1.42.37,1.99.3.56.72,1,1.25,1.31.53.31,1.1.46,1.7.46.7,0,1.29-.17,1.77-.5s.86-.75,1.16-1.25l1.14.61c-.19.43-.48.82-.87,1.19-.39.36-.86.65-1.4.87-.54.22-1.14.33-1.79.33Z"/>
        <path class="cls-1" d="m155.34,265.72c-.92,0-1.72-.23-2.41-.7-.69-.46-1.19-1.09-1.5-1.89l1.12-.54c.27.58.66,1.05,1.15,1.39.49.34,1.04.52,1.63.52s1.05-.14,1.45-.42c.39-.28.59-.65.59-1.1,0-.33-.09-.6-.29-.79s-.41-.35-.66-.46c-.25-.11-.47-.18-.66-.23l-1.37-.39c-.88-.25-1.52-.6-1.91-1.05-.39-.45-.59-.98-.59-1.57,0-.56.14-1.05.43-1.46.29-.42.67-.74,1.16-.96.49-.23,1.03-.34,1.62-.34.81,0,1.54.21,2.2.63.66.42,1.13,1.01,1.4,1.76l-1.14.54c-.24-.54-.58-.95-1.03-1.26s-.94-.45-1.49-.45-.96.14-1.29.41c-.32.27-.48.62-.48,1.03,0,.32.08.58.25.77.17.19.36.33.58.43.22.1.41.17.58.21l1.59.46c.77.23,1.38.58,1.81,1.05.43.48.65,1.03.65,1.68,0,.52-.15.99-.44,1.41-.29.42-.69.74-1.2.97-.51.23-1.1.35-1.77.35Z"/>
        <path class="cls-1" d="m164.76,265.61c-.86,0-1.52-.25-1.98-.75s-.7-1.21-.7-2.14v-5.44h-1.77v-1.34h.45c.4,0,.72-.13.96-.4s.36-.6.36-1.01v-.8h1.34v2.21h2.1v1.34h-2.1v5.44c0,.32.05.6.14.85.09.24.26.44.49.58.23.14.54.21.94.21.09,0,.21,0,.34-.02.13-.01.24-.02.34-.04v1.2c-.14.04-.3.06-.48.08-.18.02-.32.03-.43.03Z"/>
        <path class="cls-1" d="m168.02,265.51v-9.56h1.34v1.57l-.18-.23c.23-.45.57-.81,1.03-1.07s1.01-.39,1.67-.39h.61v1.34h-.84c-.69,0-1.24.21-1.66.64-.42.43-.62,1.03-.62,1.82v5.89h-1.34Z"/>
        <path class="cls-1" d="m176.82,265.72c-.61,0-1.15-.12-1.62-.35s-.85-.55-1.12-.95c-.27-.4-.41-.87-.41-1.39s.11-.95.32-1.36.55-.76,1-1.04c.45-.29,1.03-.49,1.73-.61l3.75-.62v1.21l-3.42.57c-.69.12-1.19.34-1.49.66-.3.32-.46.7-.46,1.14s.17.79.51,1.09.78.45,1.31.45c.65,0,1.22-.14,1.71-.42.49-.28.87-.66,1.14-1.13.27-.48.41-1,.41-1.59v-2.43c0-.57-.21-1.03-.62-1.39-.42-.36-.96-.54-1.62-.54-.58,0-1.09.15-1.53.44-.44.29-.77.67-.98,1.13l-1.21-.66c.18-.4.46-.77.85-1.11s.83-.6,1.33-.79c.5-.2,1.02-.29,1.55-.29.7,0,1.32.14,1.86.41s.96.65,1.27,1.13c.3.48.46,1.04.46,1.67v6.56h-1.34v-1.91l.2.2c-.17.36-.43.68-.78.97s-.76.52-1.23.7c-.47.17-.98.26-1.54.26Z"/>
        <path class="cls-1" d="m187.73,265.61c-.86,0-1.52-.25-1.98-.75s-.7-1.21-.7-2.14v-5.44h-1.77v-1.34h.45c.4,0,.73-.13.96-.4.24-.27.36-.6.36-1.01v-.8h1.34v2.21h2.11v1.34h-2.11v5.44c0,.32.05.6.14.85.09.24.26.44.49.58.23.14.54.21.94.21.09,0,.21,0,.34-.02.13-.01.24-.02.34-.04v1.2c-.14.04-.3.06-.48.08-.18.02-.32.03-.43.03Z"/>
        <path class="cls-1" d="m194.99,265.72c-.89,0-1.7-.22-2.42-.65-.72-.43-1.29-1.03-1.7-1.79-.42-.76-.62-1.62-.62-2.59s.2-1.82.61-2.56c.4-.74.95-1.33,1.65-1.76.7-.43,1.48-.64,2.35-.64.69,0,1.3.13,1.85.38s1,.6,1.38,1.03.67.92.87,1.46.3,1.1.3,1.67c0,.12,0,.25-.02.4-.01.15-.03.3-.05.45h-8.08v-1.25h7.31l-.64.54c.11-.65.03-1.24-.22-1.76-.26-.52-.62-.93-1.1-1.23s-1.01-.45-1.61-.45-1.14.15-1.65.46-.9.74-1.19,1.29c-.29.55-.4,1.21-.34,1.97-.06.76.06,1.42.37,1.99.3.56.72,1,1.25,1.31.53.31,1.1.46,1.7.46.7,0,1.29-.17,1.77-.5s.86-.75,1.16-1.25l1.14.61c-.19.43-.48.82-.87,1.19-.39.36-.86.65-1.4.87-.54.22-1.14.33-1.79.33Zm-.91-11.63l1.55-2.68h1.84l-2.03,2.68h-1.36Z"/>
        <path class="cls-1" d="m206.14,269.43c-.65,0-1.26-.1-1.81-.3-.55-.2-1.03-.48-1.43-.83-.4-.35-.7-.76-.92-1.22l1.23-.66c.19.45.53.84,1.02,1.18s1.11.5,1.87.5c.58,0,1.12-.11,1.61-.34s.88-.56,1.18-1c.3-.44.45-.98.45-1.62v-2.12l.21.2c-.33.69-.83,1.22-1.48,1.6-.65.37-1.37.56-2.14.56-.89,0-1.69-.21-2.41-.64-.71-.43-1.28-1.01-1.69-1.74-.41-.73-.62-1.54-.62-2.43s.21-1.72.62-2.44c.41-.73.97-1.3,1.68-1.73.71-.43,1.51-.64,2.42-.64.77,0,1.48.18,2.11.54.64.36,1.14.84,1.51,1.45l-.21.37v-2.14h1.34v9.19c0,.82-.19,1.55-.58,2.2-.39.65-.92,1.16-1.61,1.53-.68.37-1.47.56-2.35.56Zm-.14-5.41c.62,0,1.18-.16,1.68-.47.5-.32.9-.74,1.2-1.27.3-.53.45-1.11.45-1.74s-.15-1.21-.45-1.74c-.3-.53-.71-.95-1.2-1.27-.5-.32-1.06-.47-1.68-.47s-1.2.16-1.71.47c-.51.31-.91.73-1.2,1.26-.29.52-.44,1.11-.44,1.75s.15,1.21.44,1.74c.29.53.69.95,1.2,1.27.5.31,1.08.47,1.72.47Z"/>
        <path class="cls-1" d="m213.42,254.18v-1.96h1.34v1.96h-1.34Zm0,11.33v-9.56h1.34v9.56h-1.34Z"/>
        <path class="cls-1" d="m220.27,265.72c-.61,0-1.15-.12-1.62-.35s-.85-.55-1.12-.95c-.27-.4-.41-.87-.41-1.39s.11-.95.32-1.36.55-.76,1-1.04c.45-.29,1.03-.49,1.73-.61l3.75-.62v1.21l-3.42.57c-.69.12-1.19.34-1.49.66-.3.32-.46.7-.46,1.14s.17.79.51,1.09.78.45,1.31.45c.65,0,1.22-.14,1.71-.42.49-.28.87-.66,1.14-1.13.27-.48.41-1,.41-1.59v-2.43c0-.57-.21-1.03-.62-1.39-.42-.36-.96-.54-1.62-.54-.58,0-1.09.15-1.53.44-.44.29-.77.67-.98,1.13l-1.21-.66c.18-.4.46-.77.85-1.11s.83-.6,1.33-.79c.5-.2,1.02-.29,1.55-.29.7,0,1.32.14,1.86.41s.96.65,1.27,1.13c.3.48.46,1.04.46,1.67v6.56h-1.34v-1.91l.2.2c-.17.36-.43.68-.78.97s-.76.52-1.23.7c-.47.17-.98.26-1.54.26Z"/>
        <path class="cls-1" d="m231.03,265.72c-.92,0-1.72-.23-2.41-.7-.69-.46-1.19-1.09-1.5-1.89l1.12-.54c.27.58.66,1.05,1.15,1.39.49.34,1.04.52,1.63.52s1.05-.14,1.45-.42.59-.65.59-1.1c0-.33-.1-.6-.29-.79-.19-.2-.41-.35-.66-.46-.25-.11-.47-.18-.66-.23l-1.37-.39c-.88-.25-1.52-.6-1.91-1.05-.39-.45-.59-.98-.59-1.57,0-.56.14-1.05.43-1.46.29-.42.67-.74,1.16-.96.49-.23,1.03-.34,1.62-.34.81,0,1.54.21,2.2.63.66.42,1.13,1.01,1.4,1.76l-1.14.54c-.24-.54-.58-.95-1.03-1.26-.45-.3-.94-.45-1.49-.45s-.96.14-1.28.41-.48.62-.48,1.03c0,.32.08.58.25.77.17.19.36.33.58.43s.41.17.58.21l1.59.46c.77.23,1.38.58,1.81,1.05.43.48.65,1.03.65,1.68,0,.52-.15.99-.44,1.41-.29.42-.69.74-1.2.97-.51.23-1.1.35-1.77.35Z"/>
        <path class="cls-1" d="m247.63,269.07v-5.71l.21.2c-.33.69-.83,1.22-1.49,1.6-.66.37-1.4.56-2.22.56-.89,0-1.69-.22-2.41-.65-.71-.43-1.28-1.03-1.69-1.78-.41-.76-.62-1.61-.62-2.56s.21-1.82.62-2.57.97-1.34,1.68-1.77c.71-.43,1.51-.65,2.42-.65.82,0,1.55.18,2.19.54.64.36,1.15.84,1.52,1.45l-.21.37v-2.14h1.34v13.13h-1.34Zm-3.42-4.69c.64,0,1.22-.16,1.74-.48.52-.32.93-.76,1.23-1.31.3-.55.46-1.17.46-1.86s-.15-1.31-.46-1.86-.71-.99-1.23-1.31c-.52-.32-1.1-.48-1.74-.48s-1.2.16-1.71.48c-.51.32-.91.76-1.2,1.3-.29.55-.44,1.17-.44,1.87s.15,1.31.44,1.86c.29.55.69.99,1.2,1.31.5.32,1.08.48,1.72.48Z"/>
        <path class="cls-1" d="m255.11,265.72c-.67,0-1.27-.16-1.82-.47s-.98-.75-1.29-1.32c-.32-.56-.47-1.22-.47-1.95v-6.03h1.34v5.87c0,.51.1.96.31,1.35.21.39.5.69.87.9.37.21.81.32,1.29.32s.92-.11,1.3-.33c.38-.22.68-.54.89-.95s.32-.9.32-1.47v-5.69h1.34v9.56h-1.34v-1.86l.3.07c-.23.62-.61,1.11-1.16,1.46-.55.36-1.18.54-1.89.54Z"/>
        <path class="cls-1" d="m266.29,265.72c-.89,0-1.7-.22-2.42-.65-.72-.43-1.29-1.03-1.7-1.79-.42-.76-.62-1.62-.62-2.59s.2-1.82.61-2.56c.4-.74.95-1.33,1.65-1.76.7-.43,1.48-.64,2.35-.64.69,0,1.3.13,1.85.38s1,.6,1.38,1.03.67.92.87,1.46.3,1.1.3,1.67c0,.12,0,.25-.02.4-.01.15-.03.3-.05.45h-8.08v-1.25h7.31l-.64.54c.11-.65.03-1.24-.22-1.76-.26-.52-.62-.93-1.1-1.23s-1.01-.45-1.61-.45-1.14.15-1.65.46-.9.74-1.19,1.29c-.29.55-.4,1.21-.34,1.97-.06.76.06,1.42.37,1.99.3.56.72,1,1.25,1.31.53.31,1.1.46,1.7.46.7,0,1.29-.17,1.77-.5s.86-.75,1.16-1.25l1.14.61c-.19.43-.48.82-.87,1.19-.39.36-.86.65-1.4.87-.54.22-1.14.33-1.79.33Z"/>
        <path class="cls-1" d="m275.64,265.51v-9.7h2.21v2.25l-.25-.36c.18-.71.54-1.24,1.07-1.59.54-.35,1.17-.52,1.89-.52.8,0,1.5.21,2.11.62s1,.96,1.18,1.64l-.66.05c.3-.77.74-1.35,1.34-1.74.59-.39,1.28-.58,2.05-.58.69,0,1.31.15,1.85.46.54.31.97.74,1.28,1.29.31.55.46,1.19.46,1.92v6.24h-2.34v-5.69c0-.43-.08-.8-.23-1.11-.16-.31-.37-.55-.65-.71s-.61-.25-.99-.25-.7.08-.98.25c-.29.17-.5.4-.66.71-.16.31-.23.68-.23,1.11v5.69h-2.34v-5.69c0-.43-.08-.8-.23-1.11-.16-.31-.37-.55-.65-.71s-.61-.25-.99-.25-.7.08-.98.25c-.29.17-.5.4-.66.71-.15.31-.23.68-.23,1.11v5.69h-2.35Z"/>
        <path class="cls-1" d="m295.6,265.72c-.76,0-1.42-.17-1.96-.5-.55-.33-.97-.8-1.27-1.39-.3-.59-.45-1.29-.45-2.09v-5.94h2.36v5.74c0,.4.08.76.24,1.06.16.3.39.54.7.71.3.17.64.26,1.03.26s.72-.09,1.02-.26.53-.41.7-.72c.17-.31.25-.68.25-1.11v-5.69h2.34v9.7h-2.21v-1.91l.18.34c-.23.59-.59,1.04-1.11,1.34-.51.3-1.11.45-1.8.45Z"/>
        <path class="cls-1" d="m307.23,265.72c-.94,0-1.78-.22-2.52-.67-.74-.45-1.33-1.06-1.76-1.83-.43-.77-.64-1.63-.64-2.57s.22-1.81.65-2.57c.43-.76,1.02-1.37,1.76-1.82.74-.45,1.57-.68,2.5-.68.74,0,1.39.15,1.97.44.58.29,1.03.7,1.36,1.22l-.36.48v-5.73h2.34v13.5h-2.21v-1.87l.25.46c-.33.54-.8.94-1.39,1.21s-1.24.41-1.94.41Zm.25-2.14c.52,0,.99-.12,1.4-.37.41-.25.73-.59.96-1.03.23-.44.35-.95.35-1.52s-.12-1.06-.35-1.5c-.23-.44-.55-.79-.96-1.03-.41-.25-.88-.37-1.4-.37s-.99.12-1.41.37c-.42.25-.74.59-.97,1.03-.23.44-.35.94-.35,1.5s.12,1.08.35,1.52c.23.44.56.79.97,1.03.42.25.89.37,1.41.37Z"/>
        <path class="cls-1" d="m317.65,265.72c-.68,0-1.27-.11-1.78-.34-.51-.23-.89-.55-1.17-.97-.27-.42-.41-.91-.41-1.47s.12-1.01.37-1.44c.24-.42.62-.78,1.12-1.06.5-.29,1.13-.49,1.89-.61l3.16-.52v1.78l-2.71.48c-.46.08-.81.23-1.04.44s-.34.48-.34.83.13.6.38.79c.25.2.57.29.95.29.49,0,.92-.1,1.29-.31.38-.21.66-.5.87-.87s.3-.77.3-1.2v-2.52c0-.42-.16-.76-.48-1.04-.32-.28-.75-.42-1.29-.42-.5,0-.94.14-1.33.41-.39.27-.67.62-.85,1.05l-1.91-.93c.19-.51.49-.95.9-1.33s.89-.67,1.45-.88c.56-.21,1.17-.32,1.82-.32.8,0,1.5.15,2.1.44.61.29,1.08.7,1.42,1.22.34.52.51,1.12.51,1.8v6.46h-2.21v-1.66l.5-.02c-.25.4-.55.75-.9,1.03-.35.29-.74.5-1.18.64-.43.14-.92.21-1.45.21Z"/>
        <path class="cls-1" d="m325.04,265.51v-9.7h2.21v2.16l-.18-.32c.23-.73.58-1.23,1.06-1.52s1.06-.43,1.74-.43h.57v2.09h-.84c-.67,0-1.2.2-1.61.61s-.61.98-.61,1.71v5.41h-2.35Z"/>
        <path class="cls-1" d="m334.67,265.72c-.68,0-1.27-.11-1.78-.34-.51-.23-.89-.55-1.17-.97-.27-.42-.41-.91-.41-1.47s.12-1.01.37-1.44c.24-.42.62-.78,1.12-1.06.5-.29,1.13-.49,1.89-.61l3.16-.52v1.78l-2.71.48c-.46.08-.81.23-1.04.44s-.34.48-.34.83.13.6.38.79c.25.2.57.29.95.29.49,0,.92-.1,1.29-.31.38-.21.66-.5.87-.87s.3-.77.3-1.2v-2.52c0-.42-.16-.76-.48-1.04-.32-.28-.75-.42-1.29-.42-.5,0-.94.14-1.33.41-.39.27-.67.62-.85,1.05l-1.91-.93c.19-.51.49-.95.9-1.33s.89-.67,1.45-.88c.56-.21,1.17-.32,1.82-.32.8,0,1.5.15,2.1.44.61.29,1.08.7,1.42,1.22.34.52.51,1.12.51,1.8v6.46h-2.21v-1.66l.5-.02c-.25.4-.55.75-.9,1.03-.35.29-.74.5-1.18.64-.43.14-.92.21-1.45.21Z"/>
        <path class="cls-1" d="m342.05,265.51v-9.7h2.21v2.25l-.25-.36c.18-.71.54-1.24,1.07-1.59.54-.35,1.17-.52,1.89-.52.8,0,1.5.21,2.1.62.61.42,1,.96,1.18,1.64l-.66.05c.3-.77.74-1.35,1.34-1.74.59-.39,1.28-.58,2.05-.58.69,0,1.3.15,1.85.46.54.31.97.74,1.28,1.29.31.55.46,1.19.46,1.92v6.24h-2.34v-5.69c0-.43-.08-.8-.23-1.11-.15-.31-.37-.55-.65-.71s-.61-.25-.99-.25-.7.08-.98.25-.51.4-.66.71c-.15.31-.23.68-.23,1.11v5.69h-2.34v-5.69c0-.43-.08-.8-.23-1.11-.15-.31-.37-.55-.65-.71s-.61-.25-.99-.25-.7.08-.98.25-.51.4-.66.71c-.15.31-.23.68-.23,1.11v5.69h-2.36Z"/>
        <path class="cls-1" d="m366.46,265.72c-.94,0-1.8-.22-2.58-.66-.78-.44-1.4-1.04-1.86-1.8s-.7-1.63-.7-2.6.23-1.84.7-2.6,1.08-1.36,1.86-1.8c.77-.44,1.63-.66,2.59-.66s1.83.22,2.6.66,1.39,1.04,1.85,1.79c.46.76.69,1.63.69,2.61s-.23,1.84-.7,2.6c-.46.76-1.08,1.36-1.86,1.8s-1.63.66-2.59.66Zm0-2.14c.54,0,1-.12,1.4-.37.4-.25.71-.6.95-1.04.23-.45.35-.95.35-1.51s-.12-1.06-.35-1.5-.55-.79-.95-1.03c-.4-.25-.87-.37-1.4-.37s-.99.12-1.39.37c-.4.25-.72.59-.95,1.03-.23.44-.35.94-.35,1.5s.12,1.06.35,1.51c.23.45.55.79.95,1.04.4.25.87.37,1.39.37Z"/>
        <path class="cls-1" d="m375.2,269.47c-.15,0-.31,0-.48-.03-.17-.02-.31-.04-.43-.06v-2.03c.21.04.43.05.64.05.51,0,.9-.12,1.18-.35s.41-.59.41-1.06v-10.19h2.35v10.19c0,.74-.15,1.36-.45,1.88-.3.52-.72.91-1.28,1.19-.55.27-1.21.41-1.95.41Zm1.32-14.75v-2.5h2.35v2.5h-2.35Z"/>
        <path class="cls-1" d="m385.76,265.72c-.94,0-1.8-.22-2.58-.66-.78-.44-1.4-1.04-1.86-1.8s-.7-1.63-.7-2.6.23-1.84.7-2.6,1.08-1.36,1.85-1.8c.77-.44,1.64-.66,2.59-.66s1.83.22,2.6.66,1.39,1.04,1.85,1.79c.46.76.69,1.63.69,2.61s-.23,1.84-.7,2.6-1.08,1.36-1.86,1.8c-.77.44-1.64.66-2.59.66Zm0-2.14c.54,0,1-.12,1.4-.37.4-.25.71-.6.95-1.04.23-.45.35-.95.35-1.51s-.12-1.06-.35-1.5c-.23-.44-.55-.79-.95-1.03-.4-.25-.87-.37-1.4-.37s-.99.12-1.39.37c-.4.25-.72.59-.95,1.03-.23.44-.35.94-.35,1.5s.12,1.06.35,1.51c.23.45.55.79.95,1.04.4.25.87.37,1.39.37Z"/>
        <path class="cls-1" d="m397.37,269.43c-.73,0-1.4-.12-2.02-.36-.62-.24-1.15-.57-1.6-.99-.45-.42-.77-.92-.97-1.49l2.18-.82c.14.45.42.82.85,1.1.42.28.94.42,1.54.42.47,0,.89-.09,1.26-.27.36-.18.65-.44.86-.78s.31-.75.31-1.22v-2.21l.43.54c-.33.58-.78,1.02-1.33,1.32-.55.3-1.19.45-1.92.45-.89,0-1.7-.21-2.41-.62-.71-.42-1.28-.99-1.69-1.71-.41-.73-.62-1.54-.62-2.44s.21-1.73.62-2.44c.41-.71.97-1.28,1.67-1.69.7-.41,1.5-.62,2.39-.62.73,0,1.36.15,1.91.46.55.3,1,.74,1.37,1.31l-.3.59v-2.14h2.21v9.22c0,.84-.21,1.6-.62,2.27-.41.67-.97,1.19-1.68,1.57-.71.38-1.53.57-2.45.57Zm-.11-6.48c.5,0,.94-.11,1.31-.33.37-.22.67-.53.88-.92s.32-.84.32-1.36-.11-.95-.33-1.34c-.22-.39-.52-.7-.89-.93-.38-.23-.81-.34-1.29-.34s-.93.11-1.32.34c-.39.23-.7.54-.92.93-.22.39-.33.84-.33,1.34s.11.95.33,1.34c.22.39.52.7.91.93.39.23.83.34,1.33.34Z"/>
        <path class="cls-1" d="m409,265.72c-.94,0-1.8-.22-2.58-.66-.78-.44-1.4-1.04-1.86-1.8s-.7-1.63-.7-2.6.23-1.84.7-2.6,1.08-1.36,1.85-1.8c.77-.44,1.64-.66,2.59-.66s1.83.22,2.6.66,1.39,1.04,1.85,1.79c.46.76.69,1.63.69,2.61s-.23,1.84-.7,2.6-1.08,1.36-1.86,1.8c-.77.44-1.64.66-2.59.66Zm0-2.14c.54,0,1-.12,1.4-.37.4-.25.71-.6.95-1.04.23-.45.35-.95.35-1.51s-.12-1.06-.35-1.5c-.23-.44-.55-.79-.95-1.03-.4-.25-.87-.37-1.4-.37s-.99.12-1.39.37c-.4.25-.72.59-.95,1.03-.23.44-.35.94-.35,1.5s.12,1.06.35,1.51c.23.45.55.79.95,1.04.4.25.87.37,1.39.37Z"/>
        <path class="cls-1" d="m423.58,265.72c-.89,0-1.7-.22-2.42-.65-.72-.43-1.29-1.03-1.7-1.79-.42-.76-.62-1.62-.62-2.59s.2-1.82.61-2.56c.4-.74.95-1.33,1.65-1.76.7-.43,1.48-.64,2.35-.64.69,0,1.3.13,1.85.38s1,.6,1.38,1.03.67.92.87,1.46.3,1.1.3,1.67c0,.12,0,.25-.02.4-.01.15-.03.3-.05.45h-8.08v-1.25h7.31l-.64.54c.11-.65.03-1.24-.22-1.76-.26-.52-.62-.93-1.1-1.23-.48-.3-1.01-.45-1.61-.45s-1.15.15-1.65.46c-.51.31-.9.74-1.19,1.29-.29.55-.4,1.21-.34,1.97-.06.76.06,1.42.37,1.99.3.56.72,1,1.25,1.31.53.31,1.1.46,1.7.46.7,0,1.29-.17,1.77-.5s.86-.75,1.16-1.25l1.14.61c-.19.43-.48.82-.87,1.19-.39.36-.86.65-1.4.87-.54.22-1.14.33-1.79.33Z"/>
        <path class="cls-1" d="m437.6,265.72c-.94,0-1.77-.22-2.48-.66s-1.27-1.04-1.68-1.79c-.4-.75-.61-1.61-.61-2.56s.2-1.8.61-2.55.96-1.34,1.68-1.77,1.54-.65,2.48-.65c.59,0,1.15.11,1.68.32.52.21.99.5,1.39.87s.71.78.91,1.26l-1.21.62c-.24-.51-.6-.93-1.09-1.25-.49-.32-1.05-.48-1.68-.48s-1.2.16-1.7.47c-.5.31-.9.75-1.19,1.3-.29.55-.44,1.18-.44,1.88s.15,1.31.44,1.86c.29.55.69.99,1.19,1.31.51.32,1.07.48,1.7.48s1.19-.16,1.67-.48.85-.75,1.1-1.28l1.21.66c-.2.46-.51.88-.91,1.25s-.87.66-1.39.87c-.52.21-1.08.32-1.68.32Z"/>
        <path class="cls-1" d="m448.41,265.72c-.9,0-1.72-.22-2.46-.65s-1.32-1.03-1.76-1.78c-.43-.76-.65-1.61-.65-2.58s.21-1.8.64-2.55c.43-.75,1.01-1.34,1.74-1.77s1.56-.65,2.49-.65,1.76.21,2.49.64c.73.43,1.31,1.02,1.73,1.77.42.75.63,1.61.63,2.57s-.22,1.84-.66,2.6c-.44.76-1.03,1.35-1.76,1.77s-1.54.64-2.43.64Zm0-1.34c.64,0,1.22-.16,1.74-.48.52-.32.93-.76,1.23-1.32.3-.56.46-1.18.46-1.87s-.15-1.31-.46-1.85c-.3-.55-.71-.98-1.23-1.3-.52-.32-1.1-.48-1.74-.48s-1.22.16-1.74.48c-.52.32-.93.76-1.24,1.3s-.46,1.17-.46,1.85.15,1.31.46,1.87c.31.56.72,1,1.24,1.32.52.32,1.1.48,1.74.48Z"/>
        <path class="cls-1" d="m455.62,265.51v-9.56h1.34v1.82l-.21-.27c.26-.56.65-.99,1.17-1.3.52-.31,1.08-.46,1.7-.46.74,0,1.4.21,2,.62.59.42,1.02.96,1.27,1.62l-.37.02c.24-.74.65-1.3,1.24-1.69.59-.39,1.24-.58,1.95-.58.64,0,1.23.15,1.78.46.54.31.97.73,1.3,1.28.33.54.49,1.15.49,1.83v6.21h-1.34v-5.69c0-.58-.1-1.08-.31-1.48-.21-.4-.49-.72-.85-.94-.36-.22-.77-.33-1.23-.33s-.86.11-1.23.33c-.37.22-.66.54-.87.95-.21.41-.32.9-.32,1.47v5.69h-1.34v-5.69c0-.58-.1-1.08-.31-1.48-.21-.4-.49-.72-.85-.94-.36-.22-.77-.33-1.23-.33s-.88.11-1.24.33c-.36.22-.65.54-.87.95-.21.41-.32.9-.32,1.47v5.69h-1.34Z"/>
        <path class="cls-1" d="m476.29,265.72c-.9,0-1.72-.22-2.46-.65s-1.32-1.03-1.76-1.78c-.43-.76-.65-1.61-.65-2.58s.21-1.8.64-2.55c.43-.75,1.01-1.34,1.74-1.77s1.56-.65,2.49-.65,1.76.21,2.49.64c.73.43,1.31,1.02,1.73,1.77.42.75.63,1.61.63,2.57s-.22,1.84-.66,2.6c-.44.76-1.03,1.35-1.76,1.77s-1.54.64-2.43.64Zm0-1.34c.64,0,1.22-.16,1.74-.48.52-.32.93-.76,1.23-1.32.3-.56.46-1.18.46-1.87s-.15-1.31-.46-1.85c-.3-.55-.71-.98-1.23-1.3-.52-.32-1.1-.48-1.74-.48s-1.22.16-1.74.48c-.52.32-.93.76-1.24,1.3s-.46,1.17-.46,1.85.15,1.31.46,1.87c.31.56.72,1,1.24,1.32.52.32,1.1.48,1.74.48Z"/>
        <path class="cls-1" d="m489.3,265.72c-.61,0-1.15-.12-1.62-.35-.48-.23-.85-.55-1.12-.95-.27-.4-.41-.87-.41-1.39s.11-.95.32-1.36c.21-.41.55-.76,1-1.04.45-.29,1.03-.49,1.73-.61l3.75-.62v1.21l-3.42.57c-.69.12-1.19.34-1.49.66-.3.32-.46.7-.46,1.14s.17.79.51,1.09.78.45,1.31.45c.65,0,1.22-.14,1.71-.42.49-.28.87-.66,1.14-1.13s.41-1,.41-1.59v-2.43c0-.57-.21-1.03-.62-1.39-.42-.36-.96-.54-1.62-.54-.58,0-1.09.15-1.53.44-.44.29-.77.67-.98,1.13l-1.21-.66c.18-.4.46-.77.85-1.11.39-.33.83-.6,1.33-.79.5-.2,1.02-.29,1.55-.29.7,0,1.32.14,1.86.41s.96.65,1.27,1.13c.3.48.46,1.04.46,1.67v6.56h-1.34v-1.91l.2.2c-.17.36-.42.68-.78.97-.35.29-.76.52-1.23.7-.47.17-.98.26-1.54.26Z"/>
        <path class="cls-1" d="m496.74,269.07v-13.13h1.34v2.14l-.21-.37c.38-.61.89-1.09,1.53-1.45.64-.36,1.37-.54,2.19-.54.9,0,1.71.22,2.42.65s1.27,1.03,1.68,1.77.62,1.61.62,2.57-.21,1.8-.62,2.56c-.41.75-.97,1.35-1.68,1.78s-1.51.65-2.42.65c-.82,0-1.56-.19-2.22-.56-.66-.38-1.16-.91-1.49-1.6l.21-.2v5.71h-1.34Zm4.76-4.69c.64,0,1.22-.16,1.72-.48.5-.32.9-.76,1.2-1.31.29-.55.44-1.17.44-1.86s-.15-1.33-.44-1.87c-.29-.55-.69-.98-1.2-1.3-.51-.32-1.08-.48-1.72-.48s-1.22.16-1.74.48c-.52.32-.93.76-1.23,1.31-.3.55-.45,1.17-.45,1.86s.15,1.31.45,1.86c.3.55.71.99,1.23,1.31s1.1.48,1.74.48Z"/>
        <path class="cls-1" d="m508.63,265.51v-13.5h1.34v13.5h-1.34Z"/>
        <path class="cls-1" d="m512.72,254.18v-1.96h1.34v1.96h-1.34Zm0,11.33v-9.56h1.34v9.56h-1.34Z"/>
        <path class="cls-1" d="m521.17,265.72c-.94,0-1.77-.22-2.48-.66s-1.27-1.04-1.68-1.79c-.4-.75-.61-1.61-.61-2.56s.2-1.8.61-2.55.96-1.34,1.68-1.77,1.54-.65,2.48-.65c.59,0,1.15.11,1.68.32.52.21.99.5,1.39.87s.71.78.91,1.26l-1.21.62c-.24-.51-.6-.93-1.09-1.25-.49-.32-1.05-.48-1.68-.48s-1.2.16-1.7.47c-.5.31-.9.75-1.19,1.3-.29.55-.44,1.18-.44,1.88s.15,1.31.44,1.86c.29.55.69.99,1.19,1.31.51.32,1.07.48,1.7.48s1.19-.16,1.67-.48.85-.75,1.1-1.28l1.21.66c-.2.46-.51.88-.91,1.25s-.87.66-1.39.87c-.52.21-1.08.32-1.68.32Z"/>
        <path class="cls-1" d="m530.09,265.72c-.61,0-1.15-.12-1.62-.35-.48-.23-.85-.55-1.12-.95-.27-.4-.41-.87-.41-1.39s.11-.95.32-1.36c.21-.41.55-.76,1-1.04.45-.29,1.03-.49,1.73-.61l3.75-.62v1.21l-3.42.57c-.69.12-1.19.34-1.49.66-.3.32-.46.7-.46,1.14s.17.79.51,1.09.78.45,1.31.45c.65,0,1.22-.14,1.71-.42.49-.28.87-.66,1.14-1.13s.41-1,.41-1.59v-2.43c0-.57-.21-1.03-.62-1.39-.42-.36-.96-.54-1.62-.54-.58,0-1.09.15-1.53.44-.44.29-.77.67-.98,1.13l-1.21-.66c.18-.4.46-.77.85-1.11.39-.33.83-.6,1.33-.79.5-.2,1.02-.29,1.55-.29.7,0,1.32.14,1.86.41s.96.65,1.27,1.13c.3.48.46,1.04.46,1.67v6.56h-1.34v-1.91l.2.2c-.17.36-.42.68-.78.97-.35.29-.76.52-1.23.7-.47.17-.98.26-1.54.26Zm.43-11.63l1.55-2.68h1.84l-2.03,2.68h-1.36Z"/>
        <path class="cls-1" d="m537.48,261.35v-1.25h6.24v1.25h-6.24Z"/>
        <path class="cls-1" d="m546.41,265.51v-13.5h1.34v13.5h-1.34Z"/>
        <path class="cls-1" d="m553.26,265.72c-.61,0-1.15-.12-1.62-.35-.48-.23-.85-.55-1.12-.95-.27-.4-.41-.87-.41-1.39s.11-.95.32-1.36c.21-.41.55-.76,1-1.04.45-.29,1.03-.49,1.73-.61l3.75-.62v1.21l-3.42.57c-.69.12-1.19.34-1.49.66-.3.32-.46.7-.46,1.14s.17.79.51,1.09.78.45,1.31.45c.65,0,1.22-.14,1.71-.42.49-.28.87-.66,1.14-1.13s.41-1,.41-1.59v-2.43c0-.57-.21-1.03-.62-1.39-.42-.36-.96-.54-1.62-.54-.58,0-1.09.15-1.53.44-.44.29-.77.67-.98,1.13l-1.21-.66c.18-.4.46-.77.85-1.11.39-.33.83-.6,1.33-.79.5-.2,1.02-.29,1.55-.29.7,0,1.32.14,1.86.41s.96.65,1.27,1.13c.3.48.46,1.04.46,1.67v6.56h-1.34v-1.91l.2.2c-.17.36-.42.68-.78.97-.35.29-.76.52-1.23.7-.47.17-.98.26-1.54.26Z"/>
        <path class="cls-1" d="m564.02,265.72c-.92,0-1.72-.23-2.41-.7-.69-.46-1.19-1.09-1.5-1.89l1.12-.54c.27.58.66,1.05,1.15,1.39.49.34,1.04.52,1.63.52s1.05-.14,1.45-.42.59-.65.59-1.1c0-.33-.1-.6-.29-.79s-.41-.35-.66-.46c-.25-.11-.47-.18-.66-.23l-1.37-.39c-.88-.25-1.52-.6-1.91-1.05-.39-.45-.59-.98-.59-1.57,0-.56.14-1.05.43-1.46.29-.42.67-.74,1.16-.96.49-.23,1.03-.34,1.62-.34.81,0,1.54.21,2.2.63.66.42,1.13,1.01,1.4,1.76l-1.14.54c-.24-.54-.58-.95-1.03-1.26-.45-.3-.94-.45-1.49-.45s-.96.14-1.28.41-.48.62-.48,1.03c0,.32.08.58.25.77.17.19.36.33.58.43.22.1.41.17.58.21l1.59.46c.77.23,1.38.58,1.81,1.05.43.48.65,1.03.65,1.68,0,.52-.15.99-.44,1.41-.29.42-.69.74-1.2.97-.51.23-1.1.35-1.77.35Z"/>
        <path class="cls-1" d="m572.82,265.51v-9.56h1.34v1.85l-.3-.07c.24-.62.63-1.11,1.17-1.46.54-.36,1.17-.54,1.88-.54s1.29.15,1.83.46c.54.31.97.73,1.28,1.28.32.54.47,1.15.47,1.83v6.21h-1.34v-5.69c0-.58-.1-1.08-.31-1.48-.21-.4-.5-.72-.87-.94-.38-.22-.81-.33-1.29-.33s-.92.11-1.3.33c-.38.22-.68.54-.89.95-.21.41-.32.9-.32,1.47v5.69h-1.34Z"/>
        <path class="cls-1" d="m587.52,265.72c-.9,0-1.72-.22-2.46-.65s-1.32-1.03-1.76-1.78c-.43-.76-.65-1.61-.65-2.58s.21-1.8.64-2.55c.43-.75,1.01-1.34,1.74-1.77s1.56-.65,2.49-.65,1.76.21,2.49.64c.73.43,1.31,1.02,1.73,1.77.42.75.63,1.61.63,2.57s-.22,1.84-.66,2.6c-.44.76-1.03,1.35-1.76,1.77s-1.54.64-2.43.64Zm0-1.34c.64,0,1.22-.16,1.74-.48.52-.32.93-.76,1.23-1.32.3-.56.46-1.18.46-1.87s-.15-1.31-.46-1.85c-.3-.55-.71-.98-1.23-1.3-.52-.32-1.1-.48-1.74-.48s-1.22.16-1.74.48c-.52.32-.93.76-1.24,1.3s-.46,1.17-.46,1.85.15,1.31.46,1.87c.31.56.72,1,1.24,1.32.52.32,1.1.48,1.74.48Z"/>
        <path class="cls-1" d="m601.07,265.72c-.92,0-1.72-.23-2.41-.7-.69-.46-1.19-1.09-1.5-1.89l1.12-.54c.27.58.66,1.05,1.15,1.39.49.34,1.04.52,1.63.52s1.05-.14,1.45-.42.59-.65.59-1.1c0-.33-.1-.6-.29-.79s-.41-.35-.66-.46c-.25-.11-.47-.18-.66-.23l-1.37-.39c-.88-.25-1.52-.6-1.91-1.05-.39-.45-.59-.98-.59-1.57,0-.56.14-1.05.43-1.46.29-.42.67-.74,1.16-.96.49-.23,1.03-.34,1.62-.34.81,0,1.54.21,2.2.63.66.42,1.13,1.01,1.4,1.76l-1.14.54c-.24-.54-.58-.95-1.03-1.26-.45-.3-.94-.45-1.49-.45s-.96.14-1.28.41-.48.62-.48,1.03c0,.32.08.58.25.77.17.19.36.33.58.43.22.1.41.17.58.21l1.59.46c.77.23,1.38.58,1.81,1.05.43.48.65,1.03.65,1.68,0,.52-.15.99-.44,1.41-.29.42-.69.74-1.2.97-.51.23-1.1.35-1.77.35Z"/>
        <path class="cls-1" d="m611.19,265.72c-.89,0-1.7-.22-2.42-.65-.72-.43-1.29-1.03-1.7-1.79-.42-.76-.62-1.62-.62-2.59s.2-1.82.61-2.56c.4-.74.95-1.33,1.65-1.76.7-.43,1.48-.64,2.35-.64.69,0,1.3.13,1.85.38s1,.6,1.38,1.03.67.92.87,1.46.3,1.1.3,1.67c0,.12,0,.25-.02.4-.01.15-.03.3-.05.45h-8.08v-1.25h7.31l-.64.54c.11-.65.03-1.24-.22-1.76-.26-.52-.62-.93-1.1-1.23-.48-.3-1.01-.45-1.61-.45s-1.15.15-1.65.46c-.51.31-.9.74-1.19,1.29-.29.55-.4,1.21-.34,1.97-.06.76.06,1.42.37,1.99.3.56.72,1,1.25,1.31.53.31,1.1.46,1.7.46.7,0,1.29-.17,1.77-.5s.86-.75,1.16-1.25l1.14.61c-.19.43-.48.82-.87,1.19-.39.36-.86.65-1.4.87-.54.22-1.14.33-1.79.33Z"/>
        <path class="cls-1" d="m621.19,265.72c-.67,0-1.27-.16-1.82-.47s-.98-.75-1.29-1.32c-.32-.56-.47-1.22-.47-1.95v-6.03h1.34v5.87c0,.51.1.96.31,1.35.21.39.5.69.87.9.38.21.81.32,1.29.32s.92-.11,1.3-.33c.38-.22.68-.54.89-.95.21-.41.32-.9.32-1.47v-5.69h1.34v9.56h-1.34v-1.86l.3.07c-.23.62-.61,1.11-1.16,1.46-.55.36-1.18.54-1.89.54Z"/>
        <path class="cls-1" d="m631.06,265.51v-9.56h1.34v1.85l-.3-.07c.24-.62.63-1.11,1.17-1.46.54-.36,1.17-.54,1.88-.54s1.29.15,1.83.46c.54.31.97.73,1.28,1.28.32.54.47,1.15.47,1.83v6.21h-1.34v-5.69c0-.58-.1-1.08-.31-1.48-.21-.4-.5-.72-.87-.94-.38-.22-.81-.33-1.29-.33s-.92.11-1.3.33c-.38.22-.68.54-.89.95-.21.41-.32.9-.32,1.47v5.69h-1.34Z"/>
        <path class="cls-1" d="m645.63,265.72c-.89,0-1.7-.22-2.42-.65-.72-.43-1.29-1.03-1.7-1.79-.42-.76-.62-1.62-.62-2.59s.2-1.82.61-2.56c.4-.74.95-1.33,1.65-1.76.7-.43,1.48-.64,2.35-.64.69,0,1.3.13,1.85.38s1,.6,1.38,1.03.67.92.87,1.46.3,1.1.3,1.67c0,.12,0,.25-.02.4-.01.15-.03.3-.05.45h-8.08v-1.25h7.31l-.64.54c.11-.65.03-1.24-.22-1.76-.26-.52-.62-.93-1.1-1.23-.48-.3-1.01-.45-1.61-.45s-1.15.15-1.65.46c-.51.31-.9.74-1.19,1.29-.29.55-.4,1.21-.34,1.97-.06.76.06,1.42.37,1.99.3.56.72,1,1.25,1.31.53.31,1.1.46,1.7.46.7,0,1.29-.17,1.77-.5s.86-.75,1.16-1.25l1.14.61c-.19.43-.48.82-.87,1.19-.39.36-.86.65-1.4.87-.54.22-1.14.33-1.79.33Z"/>
        <path class="cls-1" d="m656.78,269.43c-.65,0-1.26-.1-1.81-.3-.55-.2-1.03-.48-1.43-.83-.4-.35-.71-.76-.92-1.22l1.23-.66c.19.45.53.84,1.02,1.18.49.33,1.11.5,1.87.5.58,0,1.12-.11,1.61-.34.49-.23.88-.56,1.18-1,.3-.44.45-.98.45-1.62v-2.12l.21.2c-.33.69-.83,1.22-1.48,1.6s-1.37.56-2.14.56c-.89,0-1.69-.21-2.41-.64-.71-.43-1.28-1.01-1.69-1.74-.41-.73-.62-1.54-.62-2.43s.21-1.72.62-2.44c.41-.73.97-1.3,1.68-1.73.71-.43,1.51-.64,2.42-.64.77,0,1.48.18,2.11.54.64.36,1.14.84,1.51,1.45l-.21.37v-2.14h1.34v9.19c0,.82-.19,1.55-.58,2.2-.39.65-.92,1.16-1.61,1.53-.68.37-1.47.56-2.35.56Zm-.14-5.41c.62,0,1.18-.16,1.68-.47.5-.32.9-.74,1.2-1.27.3-.53.46-1.11.46-1.74s-.15-1.21-.46-1.74c-.3-.53-.7-.95-1.2-1.27-.5-.32-1.06-.47-1.68-.47s-1.2.16-1.71.47c-.51.31-.91.73-1.2,1.26-.29.52-.44,1.11-.44,1.75s.15,1.21.44,1.74c.29.53.69.95,1.19,1.27.51.31,1.08.47,1.72.47Z"/>
        <path class="cls-1" d="m668.54,265.72c-.9,0-1.72-.22-2.46-.65s-1.32-1.03-1.76-1.78c-.43-.76-.65-1.61-.65-2.58s.21-1.8.64-2.55c.43-.75,1.01-1.34,1.74-1.77s1.56-.65,2.49-.65,1.76.21,2.49.64c.73.43,1.31,1.02,1.73,1.77.42.75.63,1.61.63,2.57s-.22,1.84-.66,2.6c-.44.76-1.03,1.35-1.76,1.77s-1.54.64-2.43.64Zm0-1.34c.64,0,1.22-.16,1.74-.48.52-.32.93-.76,1.23-1.32.3-.56.46-1.18.46-1.87s-.15-1.31-.46-1.85c-.3-.55-.71-.98-1.23-1.3-.52-.32-1.1-.48-1.74-.48s-1.22.16-1.74.48c-.52.32-.93.76-1.24,1.3s-.46,1.17-.46,1.85.15,1.31.46,1.87c.31.56.72,1,1.24,1.32.52.32,1.1.48,1.74.48Zm-.68-10.29l1.55-2.68h1.84l-2.03,2.68h-1.36Z"/>
        <path class="cls-1" d="m680.12,265.72c-.94,0-1.77-.22-2.48-.66s-1.27-1.04-1.68-1.79c-.4-.75-.61-1.61-.61-2.56s.2-1.8.61-2.55.96-1.34,1.68-1.77,1.54-.65,2.48-.65c.59,0,1.15.11,1.68.32.52.21.99.5,1.39.87s.71.78.91,1.26l-1.21.62c-.24-.51-.6-.93-1.09-1.25-.49-.32-1.05-.48-1.68-.48s-1.2.16-1.7.47c-.5.31-.9.75-1.19,1.3-.29.55-.44,1.18-.44,1.88s.15,1.31.44,1.86c.29.55.69.99,1.19,1.31.51.32,1.07.48,1.7.48s1.19-.16,1.67-.48.85-.75,1.1-1.28l1.21.66c-.2.46-.51.88-.91,1.25s-.87.66-1.39.87c-.52.21-1.08.32-1.68.32Z"/>
        <path class="cls-1" d="m686.45,254.18v-1.96h1.34v1.96h-1.34Zm0,11.33v-9.56h1.34v9.56h-1.34Z"/>
        <path class="cls-1" d="m695.01,265.72c-.9,0-1.72-.22-2.46-.65s-1.32-1.03-1.76-1.78c-.43-.76-.65-1.61-.65-2.58s.21-1.8.64-2.55c.43-.75,1.01-1.34,1.74-1.77s1.56-.65,2.49-.65,1.76.21,2.49.64c.73.43,1.31,1.02,1.73,1.77.42.75.63,1.61.63,2.57s-.22,1.84-.66,2.6c-.44.76-1.03,1.35-1.76,1.77s-1.54.64-2.43.64Zm0-1.34c.64,0,1.22-.16,1.74-.48.52-.32.93-.76,1.23-1.32.3-.56.46-1.18.46-1.87s-.15-1.31-.46-1.85c-.3-.55-.71-.98-1.23-1.3-.52-.32-1.1-.48-1.74-.48s-1.22.16-1.74.48c-.52.32-.93.76-1.24,1.3s-.46,1.17-.46,1.85.15,1.31.46,1.87c.31.56.72,1,1.24,1.32.52.32,1.1.48,1.74.48Z"/>
      </g>
      <g>
        <path class="cls-4" d="m37.75,189.19v-65.04h11.44l24.36,33.09h-5.41l23.83-33.09h11.35v65.04h-11.96v-51.51l4.63,1.14-24.71,32.92h-1.4l-24.1-32.92,3.93-1.14v51.51h-11.96Z"/>
        <path class="cls-4" d="m129.24,190.24c-3.32,0-6.21-.55-8.69-1.66-2.47-1.1-4.38-2.69-5.72-4.76-1.34-2.07-2.01-4.47-2.01-7.2s.6-4.96,1.79-7.03c1.19-2.07,3.01-3.8,5.46-5.19s5.53-2.39,9.25-2.97l15.45-2.53v8.73l-13.27,2.36c-2.27.41-3.96,1.12-5.06,2.14-1.11,1.02-1.66,2.37-1.66,4.06s.62,2.92,1.88,3.89c1.25.96,2.81,1.44,4.67,1.44,2.39,0,4.5-.51,6.33-1.53,1.83-1.02,3.24-2.43,4.23-4.23.99-1.8,1.48-3.75,1.48-5.85v-12.31c0-2.04-.79-3.74-2.36-5.11-1.57-1.37-3.67-2.05-6.29-2.05-2.44,0-4.61.67-6.5,2.01-1.89,1.34-3.27,3.06-4.15,5.15l-9.34-4.54c.93-2.5,2.4-4.67,4.41-6.5,2.01-1.83,4.38-3.27,7.12-4.32,2.74-1.05,5.7-1.57,8.91-1.57,3.9,0,7.33.71,10.3,2.14,2.97,1.43,5.28,3.42,6.94,5.98,1.66,2.56,2.49,5.5,2.49,8.82v31.61h-10.83v-8.12l2.44-.09c-1.22,1.98-2.69,3.67-4.41,5.06s-3.64,2.44-5.76,3.14c-2.13.7-4.5,1.05-7.12,1.05Z"/>
        <path class="cls-4" d="m165.39,136.37v-12.22h11.52v12.22h-11.52Zm0,52.82v-47.5h11.52v47.5h-11.52Z"/>
        <path class="cls-4" d="m205.55,190.24c-5.06,0-9.47-1.21-13.23-3.62-3.75-2.41-6.36-5.69-7.81-9.82l8.64-4.1c1.22,2.68,2.92,4.77,5.11,6.29,2.18,1.51,4.61,2.27,7.29,2.27,2.04,0,3.67-.47,4.89-1.4,1.22-.93,1.83-2.15,1.83-3.67,0-.93-.25-1.7-.74-2.31-.5-.61-1.15-1.13-1.96-1.57-.82-.44-1.75-.8-2.79-1.09l-7.77-2.18c-3.96-1.1-6.97-2.87-9.04-5.28-2.07-2.41-3.1-5.25-3.1-8.51,0-2.91.74-5.46,2.23-7.64,1.48-2.18,3.55-3.89,6.2-5.11,2.65-1.22,5.69-1.83,9.12-1.83,4.48,0,8.44,1.08,11.87,3.23,3.43,2.15,5.88,5.18,7.33,9.08l-8.73,4.1c-.82-2.15-2.18-3.85-4.1-5.11-1.92-1.25-4.08-1.88-6.46-1.88-1.92,0-3.44.42-4.54,1.27-1.11.84-1.66,1.99-1.66,3.45,0,.82.23,1.54.7,2.18.47.64,1.12,1.17,1.96,1.57.84.41,1.82.79,2.92,1.13l7.6,2.27c3.9,1.17,6.91,2.91,9.04,5.24,2.12,2.33,3.19,5.18,3.19,8.56,0,2.85-.76,5.37-2.27,7.55-1.51,2.18-3.61,3.88-6.29,5.11-2.68,1.22-5.82,1.83-9.43,1.83Z"/>
        <path class="cls-4" d="m279.41,190.24c-4.66,0-8.96-.84-12.92-2.53-3.96-1.69-7.39-4.04-10.3-7.07-2.91-3.03-5.19-6.58-6.85-10.65-1.66-4.07-2.49-8.53-2.49-13.36s.81-9.3,2.44-13.4c1.63-4.1,3.91-7.65,6.85-10.65,2.94-3,6.37-5.33,10.3-6.98,3.93-1.66,8.25-2.49,12.96-2.49s8.83.79,12.53,2.36c3.7,1.57,6.82,3.65,9.39,6.24,2.56,2.59,4.39,5.43,5.5,8.51l-10.65,5.06c-1.22-3.32-3.29-6.04-6.2-8.16-2.91-2.12-6.43-3.19-10.56-3.19s-7.67.96-10.78,2.88c-3.11,1.92-5.53,4.57-7.25,7.94-1.72,3.38-2.58,7.33-2.58,11.87s.86,8.51,2.58,11.92c1.72,3.41,4.13,6.07,7.25,7.99,3.11,1.92,6.71,2.88,10.78,2.88s7.65-1.06,10.56-3.19c2.91-2.12,4.98-4.82,6.2-8.08l10.65,4.98c-1.11,3.09-2.94,5.92-5.5,8.51-2.56,2.59-5.69,4.67-9.39,6.24-3.7,1.57-7.87,2.36-12.53,2.36Z"/>
        <path class="cls-4" d="m337.73,190.24c-4.6,0-8.8-1.08-12.62-3.23-3.81-2.15-6.85-5.09-9.12-8.82-2.27-3.72-3.41-7.97-3.41-12.75s1.13-9.02,3.41-12.75c2.27-3.72,5.3-6.66,9.08-8.82,3.78-2.15,8-3.23,12.66-3.23s8.96,1.08,12.75,3.23c3.78,2.15,6.79,5.08,9.04,8.77,2.24,3.7,3.36,7.96,3.36,12.79s-1.13,9.02-3.4,12.75c-2.27,3.73-5.3,6.67-9.08,8.82-3.78,2.15-8,3.23-12.66,3.23Zm0-10.48c2.62,0,4.9-.61,6.85-1.83s3.49-2.92,4.63-5.11,1.7-4.64,1.7-7.38-.57-5.18-1.7-7.33c-1.13-2.15-2.68-3.84-4.63-5.06s-4.23-1.83-6.85-1.83-4.83.61-6.81,1.83c-1.98,1.22-3.54,2.91-4.67,5.06-1.14,2.15-1.7,4.6-1.7,7.33s.57,5.19,1.7,7.38c1.13,2.18,2.69,3.89,4.67,5.11,1.98,1.22,4.25,1.83,6.81,1.83Z"/>
        <path class="cls-4" d="m371.43,189.19v-47.5h10.83v9.34l-.87-1.66c1.11-2.85,2.93-5.02,5.46-6.5,2.53-1.48,5.49-2.23,8.86-2.23s6.59.76,9.3,2.27c2.71,1.51,4.82,3.62,6.33,6.33s2.27,5.84,2.27,9.39v30.56h-11.44v-27.85c0-2.1-.41-3.9-1.22-5.41-.82-1.51-1.95-2.68-3.41-3.49-1.46-.81-3.11-1.22-4.98-1.22s-3.52.41-4.98,1.22c-1.46.82-2.59,1.98-3.4,3.49-.82,1.51-1.22,3.32-1.22,5.41v27.85h-11.53Z"/>
        <path class="cls-4" d="m436.74,189.19l-18.68-47.5h12.49l13.53,37.37h-4.63l13.62-37.37h12.49l-18.68,47.5h-10.13Z"/>
        <path class="cls-4" d="m493.49,190.24c-4.89,0-9.18-1.1-12.88-3.32-3.7-2.21-6.56-5.21-8.6-8.99-2.04-3.78-3.06-7.97-3.06-12.57s1.05-9.01,3.14-12.7c2.1-3.7,4.92-6.62,8.47-8.77,3.55-2.15,7.57-3.23,12.05-3.23,3.72,0,7,.61,9.82,1.83,2.82,1.22,5.22,2.91,7.2,5.06,1.98,2.15,3.49,4.61,4.54,7.38,1.05,2.77,1.57,5.75,1.57,8.95,0,.87-.04,1.73-.13,2.58-.09.84-.25,1.62-.48,2.31h-36.67v-8.82h30.21l-5.5,4.1c.58-2.68.48-5.06-.3-7.16-.79-2.1-2.07-3.75-3.84-4.98-1.78-1.22-3.92-1.83-6.42-1.83s-4.51.61-6.37,1.83c-1.86,1.22-3.27,2.97-4.23,5.24-.96,2.27-1.32,5.04-1.09,8.29-.23,2.91.16,5.49,1.18,7.73,1.02,2.24,2.53,3.97,4.54,5.19,2.01,1.22,4.32,1.83,6.94,1.83s4.85-.55,6.68-1.66c1.83-1.1,3.27-2.59,4.32-4.45l9.25,4.54c-.93,2.27-2.39,4.28-4.37,6.02s-4.34,3.11-7.07,4.1c-2.74.99-5.71,1.48-8.91,1.48Z"/>
        <path class="cls-4" d="m524.31,189.19v-47.5h10.83v10.56l-.87-1.57c1.11-3.55,2.84-6.02,5.2-7.42s5.19-2.1,8.51-2.1h2.79v10.22h-4.1c-3.26,0-5.88.99-7.86,2.97-1.98,1.98-2.97,4.77-2.97,8.38v26.45h-11.52Z"/>
        <path class="cls-4" d="m575.12,190.24c-5.06,0-9.47-1.21-13.23-3.62-3.75-2.41-6.36-5.69-7.81-9.82l8.64-4.1c1.22,2.68,2.92,4.77,5.11,6.29,2.18,1.51,4.61,2.27,7.29,2.27,2.04,0,3.67-.47,4.89-1.4,1.22-.93,1.83-2.15,1.83-3.67,0-.93-.25-1.7-.74-2.31-.5-.61-1.15-1.13-1.96-1.57-.82-.44-1.75-.8-2.79-1.09l-7.77-2.18c-3.96-1.1-6.97-2.87-9.04-5.28-2.07-2.41-3.1-5.25-3.1-8.51,0-2.91.74-5.46,2.23-7.64,1.48-2.18,3.55-3.89,6.2-5.11,2.65-1.22,5.69-1.83,9.12-1.83,4.48,0,8.44,1.08,11.87,3.23,3.43,2.15,5.88,5.18,7.33,9.08l-8.73,4.1c-.82-2.15-2.18-3.85-4.1-5.11-1.92-1.25-4.07-1.88-6.46-1.88-1.92,0-3.43.42-4.54,1.27-1.11.84-1.66,1.99-1.66,3.45,0,.82.23,1.54.7,2.18.46.64,1.12,1.17,1.96,1.57.84.41,1.82.79,2.92,1.13l7.6,2.27c3.9,1.17,6.91,2.91,9.04,5.24,2.12,2.33,3.19,5.18,3.19,8.56,0,2.85-.76,5.37-2.27,7.55-1.51,2.18-3.61,3.88-6.29,5.11-2.68,1.22-5.82,1.83-9.43,1.83Z"/>
        <path class="cls-4" d="m616.33,190.24c-3.32,0-6.21-.55-8.69-1.66-2.48-1.1-4.38-2.69-5.72-4.76-1.34-2.07-2.01-4.47-2.01-7.2s.6-4.96,1.79-7.03c1.19-2.07,3.01-3.8,5.46-5.19s5.53-2.39,9.25-2.97l15.45-2.53v8.73l-13.27,2.36c-2.27.41-3.96,1.12-5.06,2.14-1.11,1.02-1.66,2.37-1.66,4.06s.62,2.92,1.88,3.89c1.25.96,2.81,1.44,4.67,1.44,2.39,0,4.5-.51,6.33-1.53,1.83-1.02,3.24-2.43,4.23-4.23.99-1.8,1.48-3.75,1.48-5.85v-12.31c0-2.04-.79-3.74-2.36-5.11-1.57-1.37-3.67-2.05-6.29-2.05-2.45,0-4.61.67-6.5,2.01-1.89,1.34-3.27,3.06-4.15,5.15l-9.34-4.54c.93-2.5,2.4-4.67,4.41-6.5s4.38-3.27,7.12-4.32c2.74-1.05,5.7-1.57,8.91-1.57,3.9,0,7.33.71,10.3,2.14,2.97,1.43,5.28,3.42,6.94,5.98,1.66,2.56,2.49,5.5,2.49,8.82v31.61h-10.83v-8.12l2.44-.09c-1.22,1.98-2.69,3.67-4.41,5.06-1.72,1.4-3.64,2.44-5.76,3.14-2.13.7-4.5,1.05-7.12,1.05Zm12.31-56.92c-1.57,0-2.9-.25-3.97-.74-1.08-.49-1.99-1.05-2.75-1.66-.76-.61-1.51-1.16-2.27-1.66-.76-.49-1.63-.74-2.62-.74s-1.75.38-2.27,1.14c-.52.76-.79,1.86-.79,3.32h-8.82c0-4.66,1.05-8.08,3.14-10.26,2.1-2.18,4.63-3.27,7.6-3.27,1.63,0,3,.23,4.1.7,1.11.47,2.07,1.02,2.88,1.66.81.64,1.59,1.19,2.31,1.66.73.47,1.53.7,2.4.7,1.16,0,1.98-.39,2.44-1.18s.7-1.85.7-3.19h8.82c-.06,4.42-1.13,7.79-3.23,10.08-2.1,2.3-4.66,3.45-7.68,3.45Z"/>
        <path class="cls-4" d="m675.7,190.24c-4.6,0-8.8-1.08-12.62-3.23-3.81-2.15-6.85-5.09-9.12-8.82-2.27-3.72-3.41-7.97-3.41-12.75s1.14-9.02,3.41-12.75c2.27-3.72,5.3-6.66,9.08-8.82,3.78-2.15,8-3.23,12.66-3.23s8.96,1.08,12.75,3.23c3.78,2.15,6.79,5.08,9.04,8.77,2.24,3.7,3.36,7.96,3.36,12.79s-1.14,9.02-3.41,12.75c-2.27,3.73-5.3,6.67-9.08,8.82-3.78,2.15-8,3.23-12.66,3.23Zm0-10.48c2.62,0,4.9-.61,6.85-1.83,1.95-1.22,3.49-2.92,4.63-5.11s1.7-4.64,1.7-7.38-.57-5.18-1.7-7.33c-1.13-2.15-2.68-3.84-4.63-5.06-1.95-1.22-4.23-1.83-6.85-1.83s-4.83.61-6.81,1.83c-1.98,1.22-3.54,2.91-4.67,5.06-1.13,2.15-1.7,4.6-1.7,7.33s.57,5.19,1.7,7.38,2.69,3.89,4.67,5.11c1.98,1.22,4.25,1.83,6.81,1.83Z"/>
      </g>
      <g>
        <path class="cls-4" d="m287.73,22.98l-2.77-10.63h2.02l2.17,9.06h-.53l2.26-9.06h1.96l2.26,9.06h-.53l2.17-9.06h2.02l-2.77,10.63h-2.16l-2.28-8.8h.61l-2.28,8.8h-2.16Z"/>
        <path class="cls-4" d="m299.91,22.98v-10.63h6.87v1.71h-4.97v2.73h4.69v1.73h-4.69v2.75h4.97v1.71h-6.87Z"/>
        <path class="cls-4" d="m308.14,22.98v-10.63h4.36c.67,0,1.25.12,1.74.36.49.24.86.59,1.13,1.03.26.45.39.98.39,1.6,0,.49-.13.95-.38,1.38-.25.42-.66.77-1.21,1.03v-.9c.51.2.91.45,1.2.74.29.3.5.62.62.98.12.36.18.74.18,1.14,0,1.02-.33,1.81-.98,2.39-.65.58-1.55.86-2.71.86h-4.36Zm1.9-6.51h2.56c.39,0,.7-.12.93-.35.23-.23.35-.54.35-.91s-.12-.67-.35-.88c-.23-.22-.54-.33-.93-.33h-2.56v2.47Zm0,4.79h2.66c.49,0,.88-.14,1.17-.42.29-.28.44-.65.44-1.12s-.15-.84-.44-1.13c-.29-.29-.68-.43-1.17-.43h-2.66v3.1Z"/>
        <path class="cls-4" d="m317.7,22.98v-10.63h1.9v10.63h-1.9Z"/>
        <path class="cls-4" d="m321.57,22.98v-10.63h1.48l5.66,7.88-.75.16v-8.03h1.88v10.63h-1.49l-5.58-7.93.69-.16v8.09h-1.9Z"/>
        <path class="cls-4" d="m330.99,22.98l3.56-10.63h2.44l3.56,10.63h-2.05l-.73-2.27h-3.99l-.75,2.27h-2.03Zm3.32-4h2.89l-1.7-5.28h.53l-1.72,5.28Z"/>
        <path class="cls-4" d="m341.67,22.98v-10.63h3.85c.7,0,1.32.13,1.86.39.54.26.96.64,1.27,1.14.3.5.46,1.11.46,1.83s-.17,1.34-.51,1.86-.79.9-1.36,1.15l2.37,4.25h-2.13l-2.55-4.67,1.23.74h-2.59v3.92h-1.9Zm1.9-5.64h1.98c.34,0,.64-.07.89-.21.25-.14.44-.33.58-.58.14-.25.21-.53.21-.86s-.07-.62-.21-.86c-.14-.24-.33-.43-.58-.57-.25-.14-.54-.21-.89-.21h-1.98v3.28Z"/>
        <path class="cls-4" d="m354.5,23.15c-.65,0-1.25-.12-1.81-.37-.56-.25-1.04-.59-1.44-1.03s-.7-.96-.89-1.55l1.58-.7c.25.61.61,1.09,1.08,1.43.47.35,1,.52,1.59.52.33,0,.62-.05.87-.16.24-.11.43-.26.57-.45.13-.19.2-.42.2-.68,0-.31-.09-.57-.27-.77-.18-.2-.45-.36-.81-.48l-1.98-.66c-.8-.26-1.41-.64-1.82-1.15-.41-.51-.62-1.12-.62-1.82,0-.61.15-1.15.44-1.61.29-.47.7-.83,1.22-1.09.52-.26,1.12-.39,1.79-.39.62,0,1.19.11,1.7.34s.96.53,1.34.93c.37.39.65.86.84,1.39l-1.56.71c-.19-.52-.5-.93-.91-1.23-.41-.29-.88-.44-1.4-.44-.31,0-.59.05-.83.16-.24.11-.43.26-.56.46s-.2.43-.2.69c0,.29.09.55.28.78.18.22.47.4.84.52l1.9.61c.82.28,1.44.66,1.85,1.14.41.48.62,1.08.62,1.8,0,.61-.15,1.15-.46,1.61-.3.47-.72.83-1.26,1.1-.54.27-1.16.4-1.88.4Z"/>
        <path class="cls-4" d="m362.24,22.98v-10.63h6.87v1.71h-4.97v2.73h4.69v1.73h-4.69v2.75h4.97v1.71h-6.87Z"/>
        <path class="cls-4" d="m369.64,22.98l3.38-5.35-3.35-5.28h2.16l2.74,4.32h-1l2.73-4.32h2.16l-3.33,5.28,3.36,5.35h-2.16l-2.75-4.38h1s-2.77,4.38-2.77,4.38h-2.16Z"/>
        <path class="cls-4" d="m384.06,23.15c-.74,0-1.42-.14-2.05-.41-.63-.28-1.17-.66-1.63-1.16-.46-.49-.82-1.07-1.09-1.74-.26-.67-.39-1.39-.39-2.18s.13-1.52.39-2.19c.26-.67.62-1.25,1.09-1.74.47-.49,1.01-.87,1.63-1.14s1.31-.41,2.05-.41,1.4.13,1.99.39,1.08.6,1.49,1.02c.41.42.7.89.87,1.39l-1.69.83c-.19-.54-.52-.99-.98-1.33s-1.02-.52-1.67-.52-1.21.16-1.71.47c-.49.31-.88.75-1.15,1.3s-.41,1.2-.41,1.94.14,1.39.41,1.95c.27.56.66.99,1.15,1.31.49.31,1.06.47,1.71.47s1.21-.17,1.67-.52c.46-.35.79-.79.98-1.32l1.69.81c-.17.5-.47.97-.87,1.39-.41.42-.9.76-1.49,1.02s-1.25.39-1.99.39Z"/>
        <path class="cls-4" d="m389.92,22.98v-10.63h1.9v8.92h4.41v1.71h-6.31Z"/>
        <path class="cls-4" d="m401.14,23.15c-.79,0-1.5-.17-2.11-.51-.61-.34-1.1-.81-1.45-1.41-.35-.6-.53-1.28-.53-2.04v-6.83h1.88v6.74c0,.44.09.83.28,1.18.19.35.45.63.78.82.33.19.71.29,1.13.29s.81-.1,1.14-.29c.33-.19.59-.47.77-.82.19-.35.28-.75.28-1.18v-6.74h1.88v6.83c0,.76-.17,1.44-.53,2.04-.35.6-.83,1.07-1.45,1.41-.61.34-1.32.51-2.11.51Z"/>
        <path class="cls-4" d="m410.78,23.15c-.65,0-1.25-.12-1.81-.37-.56-.25-1.04-.59-1.44-1.03s-.7-.96-.89-1.55l1.58-.7c.25.61.61,1.09,1.08,1.43.47.35,1,.52,1.59.52.33,0,.62-.05.87-.16.24-.11.43-.26.57-.45.13-.19.2-.42.2-.68,0-.31-.09-.57-.27-.77-.18-.2-.45-.36-.81-.48l-1.98-.66c-.8-.26-1.41-.64-1.82-1.15-.41-.51-.62-1.12-.62-1.82,0-.61.15-1.15.44-1.61.29-.47.7-.83,1.22-1.09s1.12-.39,1.79-.39c.62,0,1.19.11,1.7.34s.96.53,1.34.93c.37.39.65.86.84,1.39l-1.56.71c-.19-.52-.5-.93-.91-1.23-.41-.29-.88-.44-1.41-.44-.31,0-.59.05-.83.16-.24.11-.43.26-.56.46s-.2.43-.2.69c0,.29.09.55.28.78.18.22.47.4.84.52l1.9.61c.82.28,1.44.66,1.85,1.14.41.48.62,1.08.62,1.8,0,.61-.15,1.15-.46,1.61-.3.47-.72.83-1.26,1.1-.54.27-1.16.4-1.88.4Z"/>
        <path class="cls-4" d="m416.05,22.98v-10.63h1.9v10.63h-1.9Z"/>
        <path class="cls-4" d="m422.66,22.98l-3.58-10.63h2.05l2.82,8.8h-.4l2.81-8.8h2.06l-3.58,10.63h-2.17Z"/>
        <path class="cls-4" d="m434.37,23.15c-.77,0-1.47-.14-2.12-.41s-1.22-.66-1.71-1.16c-.49-.49-.87-1.08-1.15-1.75-.28-.67-.42-1.4-.42-2.18s.14-1.51.41-2.18c.27-.67.65-1.25,1.14-1.74.49-.49,1.06-.87,1.72-1.15s1.37-.41,2.13-.41,1.48.14,2.13.41c.65.28,1.23.66,1.72,1.16s.87,1.08,1.14,1.74c.27.67.41,1.39.41,2.17s-.14,1.51-.42,2.18c-.28.67-.66,1.25-1.15,1.75s-1.06.88-1.71,1.16-1.36.41-2.12.41Zm0-1.77c.5,0,.96-.09,1.38-.28.42-.19.8-.44,1.11-.78.32-.33.57-.73.74-1.18.18-.46.26-.95.26-1.48s-.09-1.02-.26-1.48c-.17-.45-.42-.85-.74-1.18-.32-.34-.69-.6-1.11-.78-.42-.18-.88-.27-1.38-.27s-.96.09-1.38.27c-.42.18-.8.44-1.11.78-.32.34-.56.73-.74,1.18-.17.45-.26.94-.26,1.48s.09,1.03.26,1.48c.18.46.42.85.74,1.18.32.33.69.59,1.11.78s.89.28,1.38.28Z"/>
        <path class="cls-4" d="m445.11,23.15c-.65,0-1.25-.12-1.81-.37-.56-.25-1.04-.59-1.44-1.03s-.7-.96-.89-1.55l1.58-.7c.25.61.61,1.09,1.08,1.43.47.35,1,.52,1.59.52.33,0,.62-.05.87-.16.24-.11.43-.26.57-.45.13-.19.2-.42.2-.68,0-.31-.09-.57-.27-.77-.18-.2-.45-.36-.81-.48l-1.98-.66c-.8-.26-1.41-.64-1.82-1.15-.41-.51-.62-1.12-.62-1.82,0-.61.15-1.15.44-1.61.29-.47.7-.83,1.22-1.09s1.12-.39,1.79-.39c.62,0,1.19.11,1.7.34s.96.53,1.34.93c.37.39.65.86.84,1.39l-1.56.71c-.19-.52-.5-.93-.91-1.23-.41-.29-.88-.44-1.41-.44-.31,0-.59.05-.83.16-.24.11-.43.26-.56.46s-.2.43-.2.69c0,.29.09.55.28.78.18.22.47.4.84.52l1.9.61c.82.28,1.44.66,1.85,1.14.41.48.62,1.08.62,1.8,0,.61-.15,1.15-.46,1.61-.3.47-.72.83-1.26,1.1-.54.27-1.16.4-1.88.4Z"/>
      </g>
      <path class="cls-3" d="m279.12,1h175.92c8.68,0,15.72,7.04,15.72,15.72h0c0,8.68-7.04,15.72-15.72,15.72h-189.72V14.8c0-7.62,6.18-13.8,13.8-13.8Z"/>
      <line class="cls-3" y1="228.4" x2="725.76" y2="228.4"/>
      <rect class="cls-2" x="697.4" y="114.65" width="7.25" height="23.66" rx="3.63" ry="3.63" transform="translate(157.16 -333.57) rotate(30)"/>
      <rect class="cls-2" x="709.05" y="131.51" width="7.25" height="23.66" rx="3.63" ry="3.63" transform="translate(856.01 -569.33) rotate(90)"/>
      <rect class="cls-2" x="677.79" y="114.65" width="7.25" height="23.66" rx="3.63" ry="3.63" transform="translate(38.89 386.27) rotate(-32.53)"/>
    </g>
  </g>
</svg>